<?xml version="1.0" encoding="UTF-8"?>
<svg id="Layer_1" data-name="Layer 1" xmlns="http://www.w3.org/2000/svg" viewBox="0 0 32 32">
  <defs>
    <style>
      .cls-1 {
        fill: #333;
      }
    </style>
  </defs>
  <path class="cls-1" d="m31.44,28.2c-.26-.02-.52-.02-.78,0-.34.03-.45-.09-.44-.43.02-1.74,0-3.48.01-5.22,0-.39-.11-.68-.39-.95-.75-.73-1.48-1.49-2.23-2.21-.25-.24-.36-.49-.36-.84.02-1.47,0-2.93,0-4.4,0-3.54,0-7.08,0-10.62,0-.67-.19-.85-.86-.85-.67,0-1.33,0-2,0-.45,0-.68.22-.71.68-.02.29,0,.59,0,.89-.01.9.15.79-.85.81-.25,0-.32-.11-.31-.34,0-.43,0-.86,0-1.29,0-.51-.22-.73-.72-.74-.72,0-1.43,0-2.15,0-.46,0-.68.22-.71.67-.02.31,0,.62,0,.92-.01.86.13.76-.81.77-.28,0-.36-.11-.36-.38.01-.43.01-.86,0-1.29-.01-.46-.23-.68-.68-.7-.14,0-.23-.01-.3-.03h-1.59c-.07.03-.16.04-.28.03-.5-.02-.71.22-.72.73,0,.28,0,.57,0,.85-.02.87.15.77-.83.79-.27,0-.34-.12-.33-.36,0-.41,0-.81,0-1.22-.01-.57-.23-.79-.79-.79-.67,0-1.33,0-2,0-.59,0-.79.21-.79.81,0,.26,0,.52,0,.78-.02.87.16.77-.83.78-.27,0-.34-.12-.33-.36,0-.39,0-.79,0-1.18,0-.61-.22-.82-.83-.83-.62,0-1.23,0-1.85,0-.73,0-.9.17-.9.89,0,4.35,0,8.7,0,13.06,0,.11,0,.22,0,.33.05.32.23.52.56.54.31.02.5-.16.59-.46.06-.2.05-.42.05-.62,0-3.91,0-7.82,0-11.73,0-.86,0-.86.86-.81.22.01.31.09.31.31,0,.44,0,.89,0,1.33,0,.47.22.71.7.72.73.02,1.46.02,2.18,0,.44-.01.67-.26.69-.71.01-.3,0-.59,0-.89.01-.84-.13-.76.81-.77.25,0,.36.09.35.35-.01.43,0,.86,0,1.29,0,.47.23.72.7.73.73.02,1.46.02,2.18,0,.44-.01.67-.26.69-.71.01-.3,0-.59,0-.89.01-.84-.14-.76.81-.77.25,0,.36.09.35.35-.01.44-.01.89,0,1.33.02.43.25.67.67.69.74.02,1.48.02,2.22,0,.45-.01.67-.26.68-.71.01-.3,0-.59,0-.89.01-.83-.15-.76.81-.77.25,0,.35.1.35.35,0,.43-.01.86,0,1.29.01.44.23.7.64.71.76.02,1.53.02,2.29,0,.43-.01.63-.26.64-.7,0-.32,0-.64,0-.96,0-.74-.1-.68.7-.7.35,0,.47.1.47.46,0,4.62,0,9.25,0,13.87,0,.36-.11.47-.47.47-1.49-.02-2.98,0-4.48,0-.8,0-.99.18-.99.97,0,1.9,0,3.8,0,5.7,0,.37-.09.49-.47.49-2.44-.02-4.88-.02-7.32,0-.37,0-.49-.1-.49-.48.02-1.91,0-3.82,0-5.73,0-.75-.2-.95-.94-.95-1.76,0-3.53,0-5.29,0-.39,0-.68.13-.95.4-.84.86-1.68,1.7-2.54,2.54-.27.26-.39.54-.38.91.01,1.75,0,3.5.01,5.25,0,.32-.08.46-.41.43-.27-.02-.54-.01-.81,0C.22,28.22,0,28.47,0,28.77c0,.31.23.54.56.57.12.01.25,0,.37,0,10.05,0,20.1,0,30.15,0,.12,0,.25,0,.37,0,.33-.03.56-.27.55-.58,0-.31-.23-.55-.56-.57Zm-24.13,0c-1.32-.02-2.64-.01-3.95,0-.3,0-.38-.11-.38-.39,0-1.53,0-3.05,0-4.58,0-.28.09-.39.38-.39,1.33.01,2.66.01,3.99,0,.28,0,.36.11.35.37-.01.78,0,1.55,0,2.33,0,.75-.01,1.5,0,2.25,0,.29-.07.41-.39.41Zm.71-6.63c-.55.22-1.21.06-1.83.06-.74,0-1.47,0-2.31,0,.6-.61,1.12-1.15,1.65-1.68.05-.05.13-.07.2-.07,1.31,0,2.63,0,3.98,0-.06.21-.21.31-.33.42-.45.43-.8,1.04-1.37,1.27Zm2.18,6.63c-.32-.03-.64-.02-.96,0-.23,0-.33-.08-.33-.32,0-1.72,0-3.45,0-5.17,0-.13.03-.24.12-.34.51-.51,1.03-1.02,1.57-1.55.09.16.06.28.06.4,0,2.17,0,4.33,0,6.5,0,.36-.08.52-.47.48Zm9.95-.74c-.03.85.06.73-.73.73-1.13,0-2.26,0-3.4,0-1.24,0-2.49-.01-3.73,0-.33,0-.43-.11-.42-.43.02-.92-.08-.78.79-.79,2.34,0,4.68,0,7.02-.01.38,0,.49.11.48.48Zm2.6.74c-.37-.02-.74,0-1.11,0-.17,0-.29-.04-.29-.24,0-2.36,0-4.72,0-7.17.6.58,1.13,1.1,1.66,1.63.1.09.09.23.09.35,0,1.69,0,3.37,0,5.06,0,.26-.07.39-.36.37Zm5.84,0c-1.28-.02-2.56-.02-3.84,0-.34,0-.45-.09-.44-.44.02-1.75,0-3.5.01-5.25,0-.36-.11-.64-.36-.89-.51-.49-1-.99-1.49-1.49-.06-.06-.14-.11-.15-.26,1.33,0,2.63,0,3.94,0,.12,0,.22.04.3.13.49.49.97.98,1.46,1.47.02.02.02.06.05.16-.46,0-.9,0-1.34,0-.21,0-.42,0-.63.02-.39.05-.61.3-.59.63.02.33.27.55.66.56.78,0,1.55,0,2.33,0q.54,0,.54.56c0,1.45,0,2.91,0,4.36,0,.34-.1.45-.45.44Z"/>
  <path class="cls-1" d="m17.79,21.37c0,.63,0,1.26,0,1.88,0,.55-.22.76-.76.76-.7,0-1.4,0-2.1,0-.48,0-.71-.22-.71-.7,0-1.3,0-2.61,0-3.91,0-.47.23-.71.7-.72.73-.02,1.45-.02,2.18,0,.47.01.69.26.69.74,0,.65,0,1.3,0,1.96Zm-2.37,0c0,.23,0,.47,0,.7,0,.77,0,.76.76.75.31,0,.41-.12.4-.42-.02-.58,0-1.16,0-1.74-.01-.89.17-.78-.85-.79-.23,0-.31.1-.3.31,0,.39,0,.79,0,1.18Z"/>
  <path class="cls-1" d="m7.1,11.56c0-.36,0-.71,0-1.07.01-.46.22-.7.67-.7.74-.01,1.48-.01,2.21,0,.42,0,.67.24.68.67.02.74.02,1.48,0,2.21-.01.45-.25.68-.7.68-.73.01-1.45.01-2.18,0-.46,0-.68-.23-.69-.69,0-.37,0-.74,0-1.11Zm2.37.04q0-.6-.52-.6t-.64.57.55.59.61-.55Z"/>
  <path class="cls-1" d="m16,13.36c-.36,0-.71,0-1.07,0-.46-.01-.7-.22-.71-.67-.02-.75-.02-1.5,0-2.25,0-.41.24-.64.66-.65.75-.02,1.5-.02,2.25,0,.41,0,.65.24.66.65.02.75.02,1.5,0,2.25,0,.44-.24.65-.68.66-.37.01-.74,0-1.11,0Zm-.02-1.21q.6,0,.6-.53t-.54-.62-.61.55.56.6Z"/>
  <path class="cls-1" d="m24.9,11.56c0,.38,0,.76,0,1.14-.01.41-.23.64-.65.65-.75.01-1.5.01-2.25,0-.42,0-.66-.25-.67-.68-.02-.74-.02-1.48,0-2.21.01-.43.25-.66.68-.67.75-.01,1.5-.01,2.25,0,.41,0,.62.25.64.66.01.37,0,.74,0,1.11Zm-1.81.59q.6,0,.6-.57t-.55-.58-.61.55.56.6Z"/>
</svg>