<?xml version="1.0" encoding="UTF-8"?>
<svg id="Layer_1" data-name="Layer 1" xmlns="http://www.w3.org/2000/svg" viewBox="0 0 32 32">
  <defs>
    <style>
      .cls-1 {
        fill: #333;
      }
    </style>
  </defs>
  <rect class="cls-1" x="28.24" y="6.82" width="1.88" height="18.35"/>
  <rect class="cls-1" x="1.88" y="6.82" width="1.88" height="18.35"/>
  <path class="cls-1" d="m3.76,6.82h27.29c.52,0,.94-.42.94-.94v-3.76c0-.52-.42-.94-.94-.94H.94c-.52,0-.94.42-.94.94v3.76c0,.52.42.94.94.94h2.82Zm-1.88-3.76h28.24v1.88H1.88v-1.88Z"/>
  <path class="cls-1" d="m28.24,25.18H.94c-.52,0-.94.42-.94.94v3.76c0,.52.42.94.94.94h30.12c.52,0,.94-.42.94-.94v-3.76c0-.52-.42-.94-.94-.94h-2.82Zm1.88,3.76H1.88v-1.88h28.24v1.88Z"/>
  <path class="cls-1" d="m18.16,23.71h6.97c.52,0,.94-.42.94-.94v-10.45c0-.08,0-.15-.03-.23-.57-2.27-3.77-3.29-4.13-3.39-.17-.05-.37-.05-.54,0-.36.11-3.56,1.13-4.13,3.39-.02.08-.03.15-.03.23v10.45c0,.52.42.94.94.94Zm.94-11.26c.31-.88,1.77-1.58,2.54-1.86.78.28,2.24.98,2.54,1.86v9.38h-5.09v-9.38Z"/>
  <path class="cls-1" d="m6.87,23.71h6.97c.52,0,.94-.42.94-.94v-10.45c0-.08,0-.15-.03-.23-.57-2.27-3.77-3.29-4.13-3.39-.17-.05-.37-.05-.54,0-.36.11-3.56,1.13-4.13,3.39-.02.08-.03.15-.03.23v10.45c0,.52.42.94.94.94Zm.94-11.26c.31-.88,1.77-1.58,2.54-1.86.78.28,2.24.98,2.54,1.86v9.38h-5.09v-9.38Z"/>
</svg>