<?xml version="1.0" encoding="UTF-8"?>
<svg id="Layer_1" data-name="Layer 1" xmlns="http://www.w3.org/2000/svg" viewBox="0 0 32 32">
  <defs>
    <style>
      .cls-1 {
        fill: #999;
        stroke-width: 0px;
      }
    </style>
  </defs>
  <path class="cls-1" d="M0,15.69c.68-1.25,1.55-2.37,2.5-3.42,1.63-1.81,3.51-3.3,5.69-4.42,1.76-.9,3.61-1.49,5.57-1.73,3.12-.39,6.14,0,9.03,1.28.21.09.32.02.46-.12.96-.97,1.93-1.93,2.89-2.89.23-.23.48-.39.82-.4.41,0,.73.16.92.53.2.37.17.74-.06,1.09-.08.11-.17.21-.27.3-7.21,7.21-14.42,14.42-21.63,21.64-.22.22-.44.42-.76.46-.45.06-.85-.13-1.06-.51-.21-.38-.16-.85.13-1.2.07-.08.14-.15.22-.23.78-.78,1.55-1.57,2.34-2.34.2-.2.18-.29-.05-.44-2.44-1.55-4.45-3.55-6.09-5.93-.24-.34-.46-.69-.65-1.07v-.62ZM9.97,16.03c0-.3,0-.6.06-.9.65-4.32,5.49-6.54,9.18-4.21.21.13.32.1.47-.06.49-.51,1-1,1.5-1.5.26-.26.26-.27-.08-.39-2.79-1.03-5.64-1.19-8.53-.52-2.45.57-4.6,1.74-6.53,3.33-1.39,1.15-2.59,2.47-3.62,3.94-.11.16-.19.3-.05.5,1.61,2.27,3.57,4.16,5.97,5.6.19.11.31.08.46-.07.69-.7,1.38-1.39,2.08-2.07.16-.16.16-.27.04-.45-.62-.97-.95-2.03-.94-3.19ZM12.02,15.99c.03.59.14,1.15.4,1.69.09.19.17.26.36.08,1.65-1.66,3.31-3.32,4.97-4.97.2-.2.12-.28-.09-.37-.66-.29-1.34-.43-2.06-.35-2.01.22-3.56,1.91-3.57,3.92Z"/>
  <path class="cls-1" d="M16.07,26.01c-1.69.03-3.24-.22-4.77-.65-.34-.1-.35-.13-.09-.38.4-.4.8-.79,1.19-1.2.15-.16.31-.22.52-.17.95.23,1.93.34,2.91.34,2.19,0,4.3-.41,6.3-1.33,3.08-1.41,5.5-3.6,7.45-6.34.16-.23.14-.39-.01-.61-1.19-1.66-2.58-3.13-4.21-4.37-.2-.16-.25-.26-.04-.45.37-.35.73-.71,1.08-1.08.14-.14.24-.15.4-.03,1.99,1.58,3.68,3.42,5.02,5.59.27.44.27.86,0,1.29-1.92,3.08-4.44,5.54-7.62,7.3-1.96,1.08-4.05,1.72-6.27,1.98-.64.07-1.28.11-1.84.09Z"/>
  <path class="cls-1" d="M22.01,15.92c0,3.42-2.68,6.1-6.01,6.1-.44,0-.87-.04-1.3-.13-.25-.05-.26-.14-.08-.32.5-.49.99-.98,1.48-1.48.11-.11.23-.16.38-.18,1.83-.25,3.18-1.6,3.43-3.44.02-.14.07-.26.17-.36.5-.5,1-1,1.5-1.5.2-.2.26-.11.31.1.09.43.15.86.13,1.2Z"/>
</svg>