<?xml version="1.0" encoding="UTF-8"?>
<svg id="Layer_1" data-name="Layer 1" xmlns="http://www.w3.org/2000/svg" viewBox="0 0 32 32">
  <defs>
    <style>
      .cls-1 {
        fill: #666;
      }
    </style>
  </defs>
  <path class="cls-1" d="m0,24.74c.01-2,.72-3.71,2.14-5.12.85-.84,1.68-1.68,2.56-2.48.53-.48,1.01-1.02,1.55-1.49,1.03-.91,1.98-1.91,2.99-2.84.28-.25.56-.51.82-.78.92-.91,1.85-1.82,2.78-2.72.99-.94,1.99-1.86,2.98-2.8.62-.6,1.22-1.23,1.85-1.82,1.16-1.09,2.3-2.2,3.45-3.3.22-.21.42-.45.67-.65.47-.38,1.03-.48,1.59-.6.36-.08.73-.14,1.1-.13.58.01,1.16.06,1.73.16,1.18.21,2.21.73,3.12,1.47.65.53,1.22,1.15,1.65,1.89.45.78.75,1.61.91,2.51.23,1.32.03,2.59-.4,3.83-.05.14-.17.26-.28.37-.95.98-1.92,1.93-2.85,2.92-1.05,1.11-2.12,2.2-3.18,3.31-1.04,1.09-2.09,2.17-3.14,3.26-1.04,1.09-2.1,2.17-3.13,3.26-.54.58-1.11,1.13-1.66,1.7-1.16,1.21-2.35,2.41-3.49,3.64-.56.6-1.13,1.17-1.71,1.74-.57.57-1.25.98-1.98,1.3-1.14.5-2.34.69-3.57.57-.96-.09-1.86-.39-2.72-.84-.89-.47-1.66-1.11-2.26-1.9-.69-.9-1.18-1.92-1.39-3.06-.08-.47-.16-.94-.13-1.42Zm5.71-7.13c.74-.06,1.45-.01,2.17,0,.26,0,.51.04.78.1.84.21,1.61.51,2.37.95.78.46,1.36,1.08,1.94,1.73.3.34.44.82.68,1.19.28.43.41.9.56,1.37.26.84.2,1.7.19,2.56,0,.16-.04.34-.12.48-.06.1-.02.17.02.22.08.08.13-.03.17-.08.34-.35.68-.71,1.02-1.06,1.12-1.16,2.23-2.32,3.35-3.48.62-.64,1.26-1.26,1.86-1.91.93-.99,1.9-1.95,2.81-2.95.53-.58,1.09-1.13,1.64-1.7,1.13-1.17,2.26-2.34,3.39-3.52.64-.68,1.3-1.34,1.95-2.01.06-.07.08-.14.11-.22.35-.79.32-1.63.31-2.46,0-1.01-.37-1.92-.85-2.79-.27-.49-.67-.86-1.05-1.26-.56-.6-1.26-.97-2.01-1.27-1.12-.45-2.3-.47-3.47-.3-.4.06-.83.14-1.14.42-.52.48-1.02.98-1.53,1.47-1.07,1.02-2.13,2.04-3.2,3.06-1.01.97-2.01,1.96-3.04,2.9-.53.48-1,1.02-1.55,1.49-.66.58-1.26,1.22-1.9,1.82-1.06,1-2.08,2.04-3.14,3.04-.29.27-.58.55-.87.82-.49.46-.97.92-1.46,1.39Zm-4.67,7.27c-.05.32,0,.69.08,1.05.31,1.34.94,2.49,1.98,3.43,1.01.9,2.18,1.44,3.5,1.56,1.51.14,2.92-.25,4.18-1.12.9-.63,1.56-1.46,2.02-2.46.17-.36.21-.77.34-1.12.13-.36.17-.71.2-1.06.06-.61.03-1.22-.13-1.81-.17-.65-.39-1.28-.76-1.86-.27-.42-.62-.77-.93-1.15-.43-.52-1.01-.77-1.55-1.09-.47-.29-1.01-.42-1.55-.53-.72-.15-1.46-.16-2.17-.06-.83.12-1.61.43-2.34.87-.6.36-1.12.83-1.54,1.36-.91,1.14-1.38,2.45-1.33,3.98Z"/>
  <path class="cls-1" d="m2.07,24.83c-.01-.63.06-1.19.25-1.75.28-.86.79-1.54,1.45-2.14.53-.49,1.12-.85,1.78-1.08.69-.24,1.39-.29,2.13-.23.72.06,1.35.3,1.98.6.44.21.81.52,1.14.85.49.5.95,1.03,1.17,1.72.12.37.35.73.38,1.09.02.31.13.66.02.99-.02.06-.04.12-.03.18.09.86-.28,1.6-.68,2.3-.49.86-1.22,1.51-2.11,1.97-.93.49-1.91.66-2.93.56-.95-.1-1.81-.48-2.57-1.07-.99-.77-1.58-1.78-1.89-2.98-.09-.35-.1-.71-.09-1.02Zm1.06-.1c-.06,2.22,1.94,4.18,4.13,4.11,2.49-.08,4.04-1.9,4.07-4.02.04-2.34-1.68-4.17-4.16-4.2-2.25-.02-4.11,1.99-4.05,4.1Z"/>
</svg>