<?xml version="1.0" encoding="UTF-8"?>
<svg id="Layer_1" data-name="Layer 1" xmlns="http://www.w3.org/2000/svg" viewBox="0 0 32 32">
  <defs>
    <style>
      .cls-1 {
        fill: #333;
      }
    </style>
  </defs>
  <path class="cls-1" d="m0,31.45V.55c.11,0,.23-.03.34-.03,10.44,0,20.89,0,31.33,0,.11,0,.22,0,.33,0v30.95h-.24c-10.5,0-20.99,0-31.49,0-.09,0-.18-.02-.28-.03Zm1.81-6.94s.05-.04.07-.06c.31-.32.61-.63.94-.98-.31-.3-.63-.6-.95-.9-.02-.02-.05-.04-.07-.06-.01.02-.02.05-.03.07,0,.62,0,1.24,0,1.86,0,.03,0,.07,0,.1.02-.01.03-.02.05-.03ZM19.82,5.11s-.02-.05-.03-.07c-.01.02-.02.05-.03.07,0,.04-.02.09,0,.11.24.25.48.49.73.73.03.03.09.03.22.08-.34-.35-.61-.63-.89-.91Zm7.88,22.91s-.11.02-.11.02c0,.32,0,.64,0,.97.03.01.06.02.09.03.15-.2.3-.39.46-.59.02-.21-.22-.46-.43-.43Zm.75.86c-.26.27-.52.53-.81.83.56,0,1.06,0,1.57,0,.04,0,.08-.04.11-.06.02-.03.05-.09.04-.1-.24-.25-.49-.5-.74-.74-.02-.02-.11.05-.17.07Zm-24.95,0c-.3.26-.59.52-.92.8h1.83c-.32-.29-.58-.54-.85-.79,0-.03-.01-.06-.02-.09-.01.02-.03.05-.04.07ZM28.5,3.13s-.01.04-.02.05c0,0,0,0,0,0,0-.02.01-.04.02-.06.28-.26.55-.53.84-.8h-1.58c.07.1.16.27.3.42.13.14.29.26.44.39Zm-2.36,14.92s.01.06.02.09c.01-.02.03-.05.04-.07.24-.23.48-.46.71-.7.05-.05.1-.14.1-.21.01-.3,0-.6,0-.89h-.5c0,.64-.11,1.22-.37,1.78ZM3.5,3.13s.03.05.04.07c0-.03.01-.06.02-.09.27-.25.54-.51.84-.79h-1.84c.35.3.64.55.94.81Zm8.33-.76s.05-.06.08-.09c-.03,0-.06.02-.09.03h-1.62c.26.29.54.58.79.86.28-.27.56-.53.84-.79ZM1.82,17c.32-.35.64-.69.92-.99-.3-.31-.63-.64-.96-.98,0,.64,0,1.3,0,1.96,0,.02,0,.03,0,.05.02-.01.03-.03.05-.04Zm-.05-7.51s0,.03,0,.05c.02-.01.03-.03.05-.04.32-.35.64-.69.92-1-.28-.31-.6-.66-.92-1-.02-.01-.03-.03-.05-.04,0,.02,0,.03,0,.05,0,.66,0,1.33,0,1.99Zm28.48,5.58s-.02-.04-.03-.07c-.03.02-.06.04-.09.05-.32.34-.64.67-.89.94.32.32.66.67,1.01,1.02v-1.95Zm-3.24-.31c0-.22-.1-.33-.32-.32-.22-.21-.44-.41-.65-.62-.06.04-.12.08-.18.12-.35.26-.34.31-.07.65.19.24.45.55.43.81-.02.43.19.36.43.36.11,0,.22,0,.35,0v-.99ZM3.56,18.93s-.04-.06-.06-.09c-.02.03-.04.06-.06.09-.28.3-.56.6-.84.9.22.22.46.47.71.7.06.05.23.08.27.04.28-.25.54-.53.81-.79-.29-.3-.56-.57-.82-.84Zm24.83,0c-.27.28-.54.56-.81.85.24.24.49.47.72.72.14.16.25.14.38,0,.22-.25.45-.5.73-.81-.24-.22-.54-.48-.83-.75-.03-.04-.07-.08-.1-.12-.03.04-.06.07-.08.11Zm-1.07-14.57c.29-.05.77-.53.81-.82-.28-.32-.56-.64-.83-.96-.34.34-.65.65-.96.96.11.11.21.22.33.32.21.17.43.33.64.5Zm-.37.37c-.25-.26-.49-.53-.76-.77-.06-.05-.23-.05-.29,0-.27.23-.53.49-.81.77.3.3.57.57.85.83.03.03.13,0,.2-.01.22.02.76-.52.81-.81ZM2,14.56s.02.03.02.05c.02-.02.03-.03.05-.05.37-.36.74-.72,1.16-1.13-.55-.26-.7-1.02-1.47-.94,0,.53,0,1.05,0,1.57,0,.22.05.38.24.49Zm28.21-7.75v-1.83c-.16.02-.38-.02-.49.07-.33.26-.61.57-.96.91.43.4.81.75,1.2,1.1.18.02.27-.06.26-.24ZM7.26,12.06c.08-.06.18-.1.23-.17.07-.12.08-.27.15-.39.16-.28.33-.55.47-.77-.26-.28-.51-.53-.7-.73-.38.35-.76.7-1.15,1.06.02.08.02.17.07.23.23.24.46.48.71.71.05.05.15.05.23.07Zm17.5-.07c.05,0,.12.03.15,0,.27-.26.53-.52.79-.79.02-.02,0-.1,0-.15-.32-.35-.63-.7-.96-1.04-.04-.05-.22-.04-.27,0-.24.21-.47.44-.68.68-.05.05-.05.18-.02.25.09.2.23.38.31.58.19.48.18.48.69.44ZM3.19,23.76s-.04-.04-.04-.04c-.32.23-.66.44-.77.85.39.36.78.72,1.16,1.07.66-.43,1.06-1.01.78-1.89h-1.13Zm26.3.97s.03.02.05.02c-.01-.01-.03-.02-.04-.03-.01-.08,0-.19-.04-.24-.19-.22-.41-.42-.62-.62-.05-.05-.11-.11-.17-.11-.36-.01-.72,0-1.09,0,0,.32,0,.6,0,.88,0,.08.02.17.07.22.27.3.56.58.83.86.36-.35.68-.66,1.01-.98Zm-3.41-14.05c.25.04.3-.11.31-.31.16-.17.33-.34.49-.52.07-.07.16-.16.16-.25,0-.28-.03-.57-.05-.85-1.29-.06-1.52.04-2.06.91.27.26.54.53.83.79.09.09.21.15.31.22Zm-20.45-.25c.03.26.06.29.25.25.06-.02.14-.02.18-.05.35-.34.68-.69.94-.95-.21-.26-.45-.55-.69-.84-.04-.04-.1-.08-.15-.08-.4,0-.8,0-1.18,0-.15.65-.02,1.17.53,1.54.05.03.08.09.12.14Zm23.13-2.18c.29-.05.77-.53.82-.82-.19-.22-.36-.44-.56-.64-.56-.57-.42-.54-1.01-.01-.4.36-.66.74-.56,1.3.03.17.07.25.24.23.36-.02.71-.04,1.07-.07Zm-3.06-2.26c-.27-.3-.55-.61-.82-.91-.04-.04-.1-.08-.15-.08-.34,0-.68,0-1.02,0,0,.38,0,.73,0,1.07,0,.08.04.18.09.24.17.19.35.38.55.55.09.08.23.1.35.14.07-.01.15,0,.19-.03.24-.22.47-.46.7-.7.06-.07.08-.18.11-.27Zm-2.12.69s-.02-.05-.02-.08c-.01.02-.03.05-.04.07-.03,0-.07,0-.09.02-.6.6-1.19,1.21-1.76,1.78.63.63,1.25,1.25,1.88,1.88.58-.61,1.18-1.25,1.79-1.89-.55-.56-1.15-1.17-1.76-1.78Zm-11.13-.3c-1.23,1.27-1.42,2.73-.75,4.43-1.12-.28-2.14-.29-2.82.63-.64.86-.65,1.86-.24,2.86-.18.07-.33.15-.49.2-1.34.42-1.8,1.48-1.52,2.66.07.3.15.6.44.78.02.04.03.08.05.13.26.27.53.53.79.8.04.04.09.08.09.13,0,.51,0,1.01,0,1.54h-2.5v9.14h21v-9.16h-2.49c0-.51-.01-1,0-1.49,0-.1.11-.19.19-.28.2-.23.41-.46.62-.69.06-.04.12-.09.18-.13.02-.05.03-.1.05-.14.37-.59.49-1.22.27-1.88-.32-.94-1.04-1.4-2-1.55-.18-.03-.29-.09-.2-.32.14-.36.21-.73.19-1.12-.02-.27-.08-.54-.12-.8l-.05-.07s-.05-.07-.06-.1c-.24-.69-.82-1-1.43-1.28-.04-.02-.09-.03-.14-.03-.39.02-.78.04-1.23.06.07-.32.15-.58.19-.84.09-.59.2-1.19.03-1.79-.32-1.08-1.06-1.84-1.96-2.44-.76-.51-1.59-.9-2.4-1.32-.11-.06-.3-.04-.42,0-.88.35-1.69.84-2.47,1.37-.02.02-.05.03-.07.05-.18.15-.36.29-.54.44l-.19.19Zm-3.97,4.01c.56-.56,1.1-1.11,1.65-1.66.15-.15.2-.27.02-.44-.51-.49-1-1-1.5-1.5-.12-.12-.2-.14-.33-.01-.51.5-1.02,1-1.54,1.49-.18.17-.15.27.01.42.57.55,1.12,1.12,1.7,1.7Zm19.74,5.43c.36.1.68-.07.94-.42.09-.12.21-.23.33-.33.13-.12.13-.21,0-.33-.26-.24-.51-.49-.75-.75-.16-.17-.31-.17-.47,0-.19.19-.37.39-.58.57-.18.16-.23.33-.23.57.01.69,0,.69.76.69Zm-5.83-8.71c.29-.3.55-.56.8-.82.05-.06.12-.13.12-.2.01-.37,0-.74,0-1.14-.33,0-.62,0-.91,0-.07,0-.16.04-.21.09-.26.25-.53.5-.77.77-.05.06-.04.24,0,.3.3.33.62.64.96.99Zm-14.13-2.58c0-.38,0-.76,0-1.13,0-.07-.04-.16-.09-.21-.21-.23-.43-.45-.66-.66-.06-.05-.23-.07-.27-.02-.34.31-.67.65-1.02,1,.17.16.34.27.46.43.39.53.89.74,1.53.61,0,0,.02,0,.06-.02Zm19.2,4.22c0,.31,0,.59,0,.86,0,.06.04.14.08.18.27.28.53.55.82.81.05.04.21.04.27-.01.3-.27.59-.56.86-.86.05-.06.05-.23,0-.29-.38-.5-.84-.84-1.52-.69-.15.03-.31,0-.51,0Zm-20.39-1.36c-.35-.35-.7-.69-1.05-1.04-.02-.02-.05-.03-.12-.08-.23.25-.47.5-.71.75-.09.09-.23.18-.24.28-.03.33-.01.66-.01.95.79.17,1.45.05,1.9-.64.05-.08.13-.13.22-.23Zm1.62-2.88c.69.19,1.19-.03,1.57-.55.08-.11.22-.18.32-.28.04-.05.07-.18.03-.21-.34-.36-.69-.71-1.04-1.06-.28.28-.53.53-.78.78-.05.05-.1.14-.1.21,0,.38,0,.76,0,1.12Zm17.04-1.01c-.34-.34-.65-.64-.95-.96-.13-.14-.22-.15-.35,0-.19.21-.41.41-.61.62-.06.06-.11.15-.11.23-.01.36,0,.72,0,1.1.33,0,.62,0,.92,0,.07,0,.15-.05.21-.1.3-.29.59-.58.91-.89ZM4.46,8.31c.17-.68.03-1.23-.54-1.62-.08-.05-.14-.13-.2-.2-.14-.16-.26-.17-.41-.01-.3.31-.61.62-.92.94.26.25.51.52.78.76.07.07.19.13.29.13.34.02.68,0,1.02,0Zm5.08-1.21c.41-.41.77-.78,1.13-1.15-.54-.49-.94-1.31-1.94-.94-.09.69-.13,1.38.59,1.84.08.05.14.16.22.25Zm17.93,9.15q-.04.94.59,1.57c.07.07.14.13.2.2.15.2.28.22.47.01.22-.26.46-.51.73-.72.19-.15.14-.22.01-.34-.2-.19-.39-.4-.6-.59-.06-.06-.15-.12-.23-.12-.38-.01-.76,0-1.17,0ZM2.33,9.61c.35.35.67.67,1.01.98.05.05.22.05.27,0,.28-.25.54-.52.8-.79.05-.05.09-.12.09-.18,0-.29,0-.58,0-.88-.41,0-.78,0-1.15,0-.07,0-.16.04-.21.08-.27.24-.52.5-.81.78Zm2.16,6.66q-1.2-.09-2.01.73s-.07.05-.13.11c.34.35.66.68,1,1,.05.05.19.07.23.04.53-.5,1.19-.95.92-1.88ZM23.24,4.52q.1-1.26-.63-1.96s-.03-.04-.04-.04c-.1,0-.24-.04-.3.02-.33.3-.64.61-1.02.98.34.34.66.66.98.97.02.02.07.03.1.03.3,0,.6,0,.91,0ZM2.32,14.94c.29.28.55.53.81.78.03.03.07.06.1.06.42,0,.84,0,1.27,0,0-.33,0-.59,0-.84,0-.08-.04-.18-.1-.24-.23-.25-.47-.5-.73-.72-.07-.06-.27-.07-.33,0-.34.3-.66.63-1.01.98Zm24.69-6.69c0-.32,0-.59,0-.86,0-.08-.03-.19-.08-.25-.24-.26-.49-.51-.75-.75-.05-.05-.21-.06-.25-.02-.34.31-.67.65-1,.97.1.14.16.27.26.35.23.2.45.46.72.53.34.09.72.02,1.1.02Zm-18.76-3.22c-.63-.1-1.19-.08-1.58.51-.11.16-.28.28-.38.38.38.38.75.75,1.14,1.14.23-.24.49-.5.74-.76.04-.05.08-.12.08-.19,0-.36,0-.72,0-1.08Zm21.37,17.41c-.34-.33-.66-.64-.97-.96-.12-.13-.22-.12-.33,0-.21.22-.43.42-.63.64-.05.05-.1.14-.1.21-.01.32,0,.64,0,.95.71.12,1.34.08,1.76-.57.06-.09.16-.16.28-.28Zm-27.29.02c.28.27.54.53.8.78.03.03.07.06.1.06.38-.01.76-.03,1.11-.05.17-.67.02-1.21-.55-1.61-.05-.03-.1-.08-.13-.13-.13-.17-.24-.14-.37,0-.29.31-.6.6-.95.95Zm26.44-3.88c.29.28.56.5.78.76.2.23.41.27.7.2,0-.56.02-1.12-.01-1.68,0-.13-.17-.26-.29-.36-.03-.03-.19.06-.26.13-.3.3-.59.6-.92.95Zm1.17-3.95c.1-.13.29-.26.29-.4.03-.57.01-1.14.01-1.74-.21.02-.43-.02-.54.07-.33.28-.62.61-.92.92.41.41.77.77,1.15,1.15Zm.31-2.69c0-.51.02-1.07-.01-1.61,0-.13-.14-.27-.26-.36-.04-.03-.2.07-.29.14-.11.09-.21.2-.31.31q-.61.61,0,1.23c.23.23.42.54.87.29Zm-1.54,14.09c.31.3.56.5.76.73.22.26.46.33.78.22,0-.41-.02-.82,0-1.23.02-.33-.03-.61-.43-.81-.34.33-.7.69-1.12,1.1Zm.05-5.03c.35.34.64.64.94.92.07.07.21.16.24.14.12-.09.28-.21.29-.33.03-.57.01-1.14.01-1.76-.21.05-.42.04-.53.13-.33.27-.62.58-.95.9Zm1.49-16.53c0-.55,0-1.11,0-1.67,0-.2-.31-.42-.42-.32-.36.33-.7.67-1.05,1.02.29.29.55.51.77.77.19.23.4.29.7.21Zm-1.48,24.04c.34.34.64.63.94.92.07.07.21.16.24.14.12-.09.28-.21.29-.33.03-.57.01-1.14.01-1.76-.21.05-.41.04-.53.13-.33.27-.62.58-.95.9ZM3.12,11.07c-.37-.39-.73-.76-1.1-1.15-.08.13-.23.25-.24.38-.03.58-.01,1.16-.01,1.78.17-.03.35,0,.43-.08.34-.31.65-.65.92-.93Zm.04-7.57c-.33-.33-.63-.64-.94-.94-.06-.06-.19-.14-.22-.11-.09.06-.22.17-.22.27-.02.61,0,1.22,0,1.88.74-.08.95-.71,1.4-1.09Zm-1.4,16.1c.2-.05.38-.05.49-.14.33-.28.63-.59.91-.86-.39-.41-.75-.78-1.15-1.19-.09.16-.23.3-.24.45-.03.55-.01,1.1-.01,1.74Zm.26,5.32c-.09.15-.24.27-.25.4-.03.58-.01,1.16-.01,1.8.19-.06.37-.06.48-.15.33-.28.63-.6.93-.89-.39-.39-.75-.76-1.16-1.17Zm-.26-19.91c0,.51.01,1,0,1.48-.01.27.09.45.28.56.38-.38.75-.74,1.14-1.13-.49-.25-.64-1.01-1.41-.92Zm0,22.52c0,.59,0,1.17,0,1.75,0,.21.25.36.38.24.34-.33.67-.67,1.04-1.03-.52-.29-.62-1.09-1.42-.96Zm1.44-6.54c-.29-.27-.57-.51-.83-.78-.18-.19-.35-.26-.61-.17,0,.57-.01,1.13,0,1.69,0,.11.11.24.2.31.04.03.2-.06.27-.13.3-.28.6-.58.96-.93ZM27.27,5.03c-.33.33-.63.63-.91.91.31.31.61.61.94.94.25-.25.51-.51.76-.79.04-.05.05-.2,0-.25-.25-.28-.52-.53-.8-.81Zm.03,6.91c.25-.25.51-.52.76-.79.04-.05.05-.19.02-.23-.25-.29-.52-.56-.78-.82-.34.34-.64.65-.91.93.29.29.59.59.91.92Zm.24-7.21c.29.29.55.56.83.81.05.04.2.04.25,0,.28-.24.54-.51.84-.79-.3-.29-.55-.55-.82-.78-.06-.05-.24-.05-.3,0-.27.23-.51.49-.8.76ZM4.42,12.25c-.29-.29-.53-.54-.8-.78-.06-.05-.22-.07-.27-.03-.28.25-.55.53-.83.8.28.28.53.54.79.77.06.05.24.06.29.01.27-.24.52-.5.81-.78Zm22.51.04s.08-.09.12-.14c-.3-.25-.6-.5-.91-.74-.04-.03-.18,0-.23.04-.27.25-.53.51-.79.77.33.33.64.64.95.94.28-.28.57-.57.87-.86Zm.61-.05c.29.28.54.55.82.8.05.04.2.04.25,0,.28-.25.53-.52.81-.79-.28-.28-.54-.55-.82-.8-.05-.04-.2-.04-.25,0-.28.25-.53.52-.82.79Zm-21.96-1.25c-.26-.26-.55-.56-.89-.89-.27.27-.54.52-.8.8-.04.05-.05.2,0,.25.25.27.52.53.76.78.32-.32.61-.62.92-.93Zm21.7,3.41c.27-.27.53-.52.76-.8.05-.06.05-.23,0-.29-.17-.21-.38-.38-.57-.58-.15-.16-.27-.15-.41,0-.24.25-.48.49-.73.73.31.3.61.6.95.94Zm.24,12.85c.3.29.55.54.81.78.06.05.23.07.27.03.28-.25.55-.53.83-.81-.26-.25-.5-.48-.73-.7-.14-.14-.29-.14-.43-.01-.24.23-.48.46-.76.72ZM5.71,13.53c-.33-.32-.57-.57-.84-.8-.06-.05-.24-.05-.3,0-.27.23-.53.49-.78.74.34.34.65.64.88.87.33-.25.67-.52,1.03-.81Zm-.14-7.51c-.31-.32-.61-.63-.87-.9-.29.27-.59.55-.87.81.31.31.61.61.91.91.28-.28.58-.57.83-.83Zm5.73-2.49c.25.25.5.51.78.75.06.05.24.05.3,0,.27-.23.51-.49.73-.71-.31-.31-.61-.62-.91-.93-.28.28-.58.57-.89.89Zm-6.91,1.2c-.25-.25-.49-.48-.72-.72-.14-.16-.25-.17-.4,0-.22.25-.47.47-.69.69.31.31.61.62.91.91.29-.28.59-.57.9-.88Zm2.39,7.56c-.3-.31-.58-.6-.88-.91-.24.24-.49.48-.72.74-.05.06-.06.24-.02.29.23.27.49.52.72.75.33-.32.63-.62.9-.88Zm-1.21-8.7c-.32-.33-.62-.64-.87-.9-.28.27-.57.56-.88.86.24.23.5.47.74.73.12.13.21.12.33,0,.23-.25.48-.48.68-.68Zm22.58,14.93c-.25-.24-.51-.51-.79-.75-.05-.04-.22-.03-.27.02-.26.23-.51.49-.74.72.32.31.63.62.93.91.27-.28.56-.57.88-.9Zm-7.53-14.96c-.33-.33-.62-.62-.93-.93-.23.23-.47.49-.72.74-.11.11-.13.2,0,.31.2.19.39.41.6.59.06.05.24.06.3.01.27-.24.53-.5.76-.72Zm-15.01,14.96c-.25-.25-.5-.48-.73-.73-.12-.13-.21-.12-.33,0-.24.25-.5.49-.73.72.32.31.62.6.92.9.27-.27.57-.58.88-.89Zm-3.07,8.75c.27.26.5.52.76.74.06.06.24.08.29.03.28-.24.54-.51.84-.8-.28-.26-.51-.5-.77-.71-.08-.06-.28-.06-.35,0-.27.22-.51.48-.77.73ZM20.07,4.69c.32.34.6.64.86.9.3-.29.6-.58.93-.9-.26-.26-.52-.53-.79-.78-.04-.03-.19,0-.25.06-.26.23-.51.49-.75.72Zm-13.23.03c-.26-.26-.51-.51-.77-.75-.06-.05-.23-.07-.27-.03-.27.25-.51.52-.71.74.33.33.62.63.88.89.27-.26.56-.55.87-.86Zm3.28.07c.25.24.5.49.76.73.06.05.21.09.24.06.27-.27.51-.55.76-.83-.29-.29-.58-.58-.94-.93-.26.31-.53.62-.83.97Zm-4.17,9.02c-.61.54-1.31,1.02-.94,2.01.15,0,.32.02.48,0,.09-.02.22-.12.22-.19,0-.37.23-.64.38-.95.08-.16.31-.32.28-.42-.05-.17-.26-.28-.41-.44ZM16.31,3.21c.35.16.69.31,1.03.47.51.25.51.26.75-.06-.33-.44-.64-.85-.92-1.22-.33.32-.59.56-.86.81Zm13.92,4.29c-.33.34-.69.7-1.01,1.02.31.31.65.66,1.01,1.02v-2.04ZM13.76,3.55c.07.07.15.15.24.21.07.05.18.11.23.08.47-.21.93-.43,1.39-.65-.25-.26-.5-.52-.74-.77-.37.37-.74.74-1.12,1.12Zm15.52,19.94c.3.31.65.66.96.97v-1.94s-.05-.04-.08-.06c-.31.37-.63.73-.88,1.03Zm-4.89-10.98c-.02.29-.05.55-.05.82,0,.09.07.23.15.27.25.14.51.25.76.37.1-.1.19-.23.31-.3.21-.12.14-.22.01-.34-.22-.21-.44-.41-.63-.64-.17-.2-.37-.23-.55-.18Zm-17.65,1.5c.22-.15.43-.29.58-.39v-1.13s-.07-.04-.11-.06c-.21.24-.42.48-.64.71-.3.31-.3.31-.02.61.06.07.11.14.19.25Zm-1.03,3.97c-.09-.56-.18-1.14-.27-1.72h-.45c-.21.78.07,1.34.72,1.72Zm-.57-15.68c.26.28.54.57.78.83.28-.28.57-.56.84-.83h-1.62Zm21.72.01h-1.62c.28.28.55.55.83.83.25-.26.52-.54.79-.83Zm-7.5,0h-1.65c.29.29.56.56.82.83.27-.26.55-.55.83-.83Zm-6.74-.02c.31.29.6.56.85.8.25-.25.53-.53.8-.8h-1.65Zm8.37.87c.28-.28.56-.56.86-.85h-1.71c.3.3.57.57.85.85Zm1.1,4.2c-.6-.72-.99-1.05-1.19-1.03.24.51.47,1.03.71,1.55.17-.18.32-.34.48-.52Zm-11.04-1.05c-.37.38-.74.75-1.07,1.08.1.11.22.26.36.41.24-.5.47-1,.71-1.49Zm8.29-1.49l.12-.15c-.3-.3-.6-.59-.92-.9-.15.16-.23.25-.32.34.4.25.76.48,1.12.7Zm8.27,21.74c.69-.6.7-.48,0-1.08v1.08Zm-21.66-7.66c-.16.16-.34.35-.5.51h1.03c-.19-.18-.36-.35-.53-.51Zm20.58.51c-.17-.17-.34-.34-.54-.54-.16.16-.35.33-.57.54h1.11Zm-22.17,1c-.21.25-.36.43-.45.54.13.15.29.33.45.51v-1.04Zm-.01,8.66v-1.13c-.21.22-.38.39-.49.51.15.19.29.38.49.62Zm23.67-8.04c-.14-.15-.3-.33-.43-.47v.98c.19-.23.34-.4.43-.51Zm-23.67,4.56c-.18.15-.37.31-.57.49.19.17.37.32.57.49v-.98ZM7.93,2.31c.2.2.37.38.49.49.18-.17.35-.34.51-.49h-1.01Zm15.53.49c.16-.16.33-.33.48-.48h-1c.2.19.37.35.51.48Zm-10.9,2.06c.41-.28.77-.51,1.15-.76-.1-.09-.18-.17-.21-.19-.31.31-.6.61-.94.95Zm3.97-2.55c-.37,0-.67,0-.98,0-.03,0-.05,0-.09.02.63.71.44.58,1.07-.02Zm-4.45,2.89l.09.06c.03-.06.07-.11.1-.17-.03-.02-.05-.03-.08-.05-.04.05-.07.11-.11.16Zm-.75.71s.04.07.06.1c.06-.04.12-.08.17-.12-.02-.03-.03-.05-.05-.08-.06.03-.13.07-.19.1Zm10.48,3.59s-.03,0-.04,0c0,.04.01.08.02.13.01,0,.02,0,.04,0,0-.04,0-.09-.01-.13Zm-15.97,8.62s0,.01,0,.02c.01,0,.02,0,.03,0,0,0,0-.02,0-.02,0,0-.01,0-.02,0Z"/>
  <path class="cls-1" d="m24.7,6.99c.33-.33.67-.67,1-1-.04.09-.05.2-.11.27-.22.24-.46.47-.7.7-.04.04-.13.02-.19.03Z"/>
  <path class="cls-1" d="m24.76,11.99c.31-.31.62-.62.93-.93,0,.05.03.12,0,.15-.26.27-.52.53-.79.79-.02.02-.1,0-.15,0Z"/>
  <path class="cls-1" d="m6.26,11.05c.33.33.67.67,1,1-.08-.02-.17-.02-.23-.07-.24-.23-.48-.46-.71-.71-.05-.05-.05-.15-.07-.23Z"/>
  <path class="cls-1" d="m29.32,29.64c-.21-.2-.41-.4-.62-.6-.07-.07-.16-.11-.25-.17.06-.03.15-.09.17-.07.25.24.5.49.74.74,0,0-.03.06-.04.1Z"/>
  <path class="cls-1" d="m3.19,23.76c-.27.27-.54.54-.81.81.11-.41.45-.63.77-.85,0,0,.03.03.04.04Z"/>
  <path class="cls-1" d="m26.14,5.55l.81-.81c-.05.29-.59.83-.81.81Z"/>
  <path class="cls-1" d="m28.76,8.24c.27-.27.54-.54.82-.82-.05.29-.53.77-.82.82Z"/>
  <path class="cls-1" d="m27.32,4.37c.27-.27.54-.55.81-.82-.05.29-.53.77-.81.82Z"/>
  <path class="cls-1" d="m28.13,28.45c-.14-.14-.29-.29-.43-.43.21-.02.46.22.43.43Z"/>
  <path class="cls-1" d="m26.08,10.68l.31-.31c0,.2-.06.36-.31.31Z"/>
  <path class="cls-1" d="m27.01,14.76c-.11-.11-.21-.21-.32-.32.22,0,.33.1.32.32Z"/>
  <path class="cls-1" d="m5.63,10.43c.08.08.17.17.25.25-.19.04-.22.01-.25-.25Z"/>
  <path class="cls-1" d="m12.08,5.19c.04-.05.07-.11.11-.16.03.02.05.03.08.05-.03.06-.07.11-.1.17l-.09-.06Z"/>
  <path class="cls-1" d="m11.33,5.9c.06-.03.13-.07.19-.1.02.03.03.05.05.08-.06.04-.12.08-.17.12-.02-.03-.04-.07-.06-.1Z"/>
  <path class="cls-1" d="m29.95,7.05c.09-.08.17-.16.26-.24.01.19-.08.26-.26.24Z"/>
  <path class="cls-1" d="m24.83,18.06c.06-.04.12-.09.18-.13-.06.04-.12.09-.18.13Z"/>
  <path class="cls-1" d="m28.58,18.94h-.19s.06-.08.08-.12c.03.04.07.08.1.12Z"/>
  <path class="cls-1" d="m12.64,6.18l-.19.19.19-.19Z"/>
  <path class="cls-1" d="m3.56,18.93s-.08,0-.13,0c.02-.03.04-.06.06-.09.02.03.04.06.06.09Z"/>
  <path class="cls-1" d="m11.83,2.37s0-.04-.01-.06c.03,0,.06-.02.09-.03-.03.03-.05.06-.08.09Z"/>
  <path class="cls-1" d="m21.81,9.49s0,.09.01.13c-.01,0-.02,0-.04,0,0-.04-.01-.08-.02-.13.01,0,.03,0,.04,0Z"/>
  <path class="cls-1" d="m7.07,17.94s.03.08.05.13c-.02-.04-.03-.08-.05-.13Z"/>
  <path class="cls-1" d="m1.77,24.44s.03,0,.05,0c0,.02,0,.05,0,.07-.02.01-.03.02-.05.03,0-.03,0-.07,0-.1Z"/>
  <path class="cls-1" d="m1.87,22.57s-.07,0-.1,0c.01-.02.02-.05.03-.07.02.02.05.04.07.06Z"/>
  <path class="cls-1" d="m3.5,3.13s.04-.01.06-.02c0,.03-.01.06-.02.09-.01-.02-.03-.05-.04-.07Z"/>
  <path class="cls-1" d="m19.82,5.11s-.04,0-.06,0c.01-.02.02-.05.03-.07.01.02.02.05.03.07Z"/>
  <path class="cls-1" d="m23.58,6.68s-.04,0-.06-.01c.01-.02.03-.05.04-.07,0,.03.02.05.02.08Z"/>
  <path class="cls-1" d="m5.84,18.11s.02,0,.02,0c0,0,0,.01,0,.02-.01,0-.02,0-.03,0,0,0,0-.01,0-.02Z"/>
  <path class="cls-1" d="m3.56,28.89s-.04-.01-.06-.02c.01-.02.03-.05.04-.07,0,.03.01.06.02.09Z"/>
  <path class="cls-1" d="m30.25,15.07s-.08,0-.11-.01c.03-.02.06-.04.09-.05,0,.02.02.04.03.07Z"/>
  <path class="cls-1" d="m26.14,18.05s.04.01.06.02c-.01.02-.03.05-.04.07,0-.03-.01-.06-.02-.09Z"/>
  <path class="cls-1" d="m29.5,24.73s.03.02.04.03c-.02,0-.03-.02-.05-.02,0,0,0,0,0,0Z"/>
  <path class="cls-1" d="m1.82,7.49l-.02.02h-.03s0-.04,0-.05c.02.01.03.03.05.04Z"/>
  <path class="cls-1" d="m1.77,16.99s.03,0,.05,0c-.02.01-.03.03-.05.04,0-.02,0-.03,0-.05Z"/>
  <path class="cls-1" d="m2,14.56s.05,0,.07,0c-.02.02-.03.03-.05.05,0-.02-.02-.03-.02-.05Z"/>
  <path class="cls-1" d="m1.77,9.49s.03,0,.05,0c-.02.01-.03.03-.05.04,0-.02,0-.03,0-.05Z"/>
  <path class="cls-1" d="m28.5,3.13s0,0,0,0c0,.02-.01.04-.02.06,0,0,0,0,0,0l.02-.05Z"/>
  <path class="cls-1" d="m23.2,12.13l-.05-.07.05.07Z"/>
</svg>