<?xml version="1.0" encoding="UTF-8"?>
<svg id="Layer_1" data-name="Layer 1" xmlns="http://www.w3.org/2000/svg" viewBox="0 0 32 32">
  <defs>
    <style>
      .cls-1 {
        fill: #666;
      }
    </style>
  </defs>
  <path class="cls-1" d="m22.56,0c3.01,0,6.02,0,9.03,0q.4,0,.41.41c0,6.01,0,12.02,0,18.03,0,.24-.07.41-.24.58-4.25,4.24-8.5,8.49-12.75,12.75-.16.16-.33.23-.56.23-.78-.01-1.57,0-2.35,0-.22,0-.31-.07-.3-.3.02-.24,0-.49,0-.74,0-.18-.07-.24-.25-.24-.34,0-.69,0-1.03,0-.33,0-.34,0-.38-.36-.11-.91-.32-1.8-.62-2.67-.64-1.8-1.62-3.4-2.88-4.84-1.41-1.6-3.06-2.89-4.99-3.82-1.25-.61-2.57-1.01-3.95-1.18q-.42-.05-.42-.47c0-.31-.01-.62,0-.93,0-.21-.07-.27-.27-.26-.25.01-.51,0-.76,0-.17,0-.24-.06-.24-.23,0-.87,0-1.73,0-2.6,0-.16.1-.25.2-.35,1.85-1.85,3.7-3.7,5.55-5.55C8.17,5.06,10.59,2.64,13,.22,13.16.06,13.32,0,13.54,0c3.01,0,6.02,0,9.03,0ZM1.75,13.23c.12,0,.18.01.25.01,5.35,0,10.69,0,16.04,0,.17,0,.29-.05.41-.17,3.87-3.88,7.74-7.75,11.62-11.62.05-.05.13-.08.12-.17-.17,0-.33,0-.49,0-3.78,0-7.55,0-11.33,0-1.46,0-2.93,0-4.39,0-.14,0-.27,0-.39.11-.41.41-.82.82-1.23,1.23-.97.97-1.94,1.94-2.91,2.91-1,1-2,2-3,3-.96.96-1.93,1.93-2.89,2.89-.59.59-1.18,1.18-1.8,1.8ZM30.72,1.77c-.09.09-.16.15-.22.21-3.85,3.85-7.7,7.7-11.55,11.55-.14.14-.2.28-.19.47,0,5.31,0,10.61,0,15.92,0,.08-.04.18.08.28.15-.16.3-.32.45-.48.86-.86,1.72-1.72,2.58-2.58.84-.84,1.68-1.67,2.51-2.51.99-.99,1.97-1.98,2.96-2.97,1.09-1.09,2.17-2.17,3.26-3.25.08-.08.13-.17.13-.3,0-4.83,0-9.66,0-14.49,0-.6,0-1.19,0-1.84Zm-12.67,20.58c0-2.67,0-5.33,0-8,0-.08,0-.16,0-.25,0-.11-.06-.16-.17-.17-.08,0-.16,0-.25,0-5.33,0-10.66,0-15.99,0-.07,0-.13,0-.2,0-.14,0-.21.05-.21.2,0,.2,0,.41,0,.61,0,.15.06.21.2.2.25,0,.51.01.76,0,.24-.02.31.09.31.31-.01.4,0,.8,0,1.2,0,.19.07.28.26.31.23.04.45.09.67.15,2.58.66,4.81,1.95,6.75,3.74,2.54,2.35,4.34,5.15,5.03,8.59.04.18.12.23.29.22.31,0,.62,0,.93,0,.69,0,.6-.08.6.6,0,.67,0,.67.67.67q.35,0,.35-.36c0-2.68,0-5.36,0-8.04Z"/>
</svg>