<?xml version="1.0" encoding="UTF-8"?>
<svg id="Layer_1" data-name="Layer 1" xmlns="http://www.w3.org/2000/svg" viewBox="0 0 32 32">
  <defs>
    <style>
      .cls-1 {
        fill: #ffdc64;
      }

      .cls-2 {
        fill: #ffc850;
      }
    </style>
  </defs>
  <path class="cls-1" d="m18.83.18c.17.42-.03.81-.09,1.21-.24,1.38-.52,2.75-.78,4.12-.29,1.48-.57,2.97-.86,4.45-.15.76-.11.8.69.65.56-.1,1.12-.17,1.68-.24.8-.11,1.6-.18,2.39-.33.43-.08.87-.09,1.28-.19.24-.06.51.02.73-.17.11-.1.24.04.38.02.32-.03.63-.1.96-.09.64.01.92.49.59,1.06-.78,1.35-1.56,2.7-2.35,4.05-.23.39-.5.77-.72,1.15-.31.52-.61,1.05-.9,1.59-1.42,2.59-2.94,5.13-4.42,7.69-1.23,2.13-2.47,4.27-3.71,6.4-.09.15-.19.3-.29.44h-.31c.1-.08.14-.2.18-.32.14-.45.29-.91.43-1.36.71-2.25,1.41-4.49,2.12-6.74.64-2.04,1.3-4.07,1.94-6.11.16-.51.34-1.03.47-1.55.22-.84-.44-1.59-1.25-1.49-.72.09-1.44.13-2.16.19-.6.05-1.19.09-1.79.14-.95.08-1.89.16-2.84.24-.14.01-.32.06-.41-.13-.09-.18.01-.31.1-.45.46-.74.93-1.47,1.39-2.21,1.42-2.28,2.84-4.56,4.26-6.84,1.01-1.62,2.03-3.23,3.04-4.85.08-.12.12-.27.27-.33Z"/>
  <path class="cls-2" d="m18.83.18c-.15.06-.19.21-.27.33-1.01,1.62-2.03,3.23-3.04,4.85-1.42,2.28-2.84,4.56-4.26,6.84-.46.74-.92,1.48-1.39,2.21-.09.14-.19.27-.1.45.1.19.27.14.41.13.95-.07,1.89-.16,2.84-.24.6-.05,1.19-.09,1.79-.14.72-.06,1.44-.1,2.16-.19.81-.1,1.47.64,1.25,1.49-.13.52-.31,1.03-.47,1.55-.65,2.04-1.3,4.07-1.94,6.11-.71,2.24-1.41,4.49-2.12,6.74-.14.46-.29.91-.43,1.36-.04.12-.08.24-.18.32h-.06c-.26-.32-.09-.66-.03-.98.34-1.83.72-3.65,1.07-5.48.34-1.71.66-3.43,1-5.14.25-1.3.5-2.6.76-3.9.03-.17-.06-.2-.19-.19-.5.05-1.01.1-1.51.15-.49.05-.98.1-1.47.16-.68.08-1.37.15-2.05.23-.46.06-.92.1-1.38.14-.73.07-1.45.12-2.17.24-.33.06-.69-.07-.84-.32-.17-.29-.13-.57.08-.84.73-.95,1.46-1.9,2.17-2.87.8-1.1,1.64-2.17,2.44-3.27,1.05-1.45,2.17-2.84,3.25-4.27,1.36-1.79,2.7-3.58,4.06-5.37.08-.11.17-.21.25-.31.1,0,.21,0,.31,0,.02.06.05.12.07.18Z"/>
</svg>