<?xml version="1.0" encoding="UTF-8"?>
<svg id="Layer_1" data-name="Layer 1" xmlns="http://www.w3.org/2000/svg" viewBox="0 0 32 32">
  <defs>
    <style>
      .cls-1 {
        fill: #333;
      }
    </style>
  </defs>
  <path class="cls-1" d="m4.82,32c-.26-.19-.32-.45-.32-.76,0-4.9.03-9.81,0-14.71-.02-2.86.73-5.49,2.19-7.93,1.48-2.47,3.41-4.53,5.62-6.34.85-.69,1.72-1.34,2.65-1.92.7-.44,1.4-.43,2.08,0,1.9,1.2,3.62,2.63,5.17,4.25,1.57,1.64,2.92,3.44,3.89,5.51.64,1.37,1.09,2.79,1.27,4.3.08.68.12,1.37.12,2.05,0,4.95,0,9.89,0,14.84,0,.3-.07.54-.32.73H4.82Zm10.69-7.73c0-2.11,0-4.23,0-6.34,0-.26-.04-.52-.1-.77-.27-1.24-.89-2.32-1.58-3.36-.23-.35-.48-.36-.75-.04-.54.65-1.03,1.34-1.43,2.08-.44.81-.7,1.66-.65,2.59.02.36,0,.73,0,1.09,0,.26-.15.43-.41.47-.26.05-.44-.07-.54-.31-.06-.13-.04-.27-.04-.4-.03-.73.06-1.46-.1-2.18-.28-1.24-.91-2.31-1.6-3.35-.2-.3-.45-.31-.69-.03-.34.39-.64.82-.94,1.25-.77,1.13-1.2,2.35-1.19,3.76.05,4,.02,8,0,11.99,0,.25.08.29.3.28,1.3,0,2.6-.01,3.9,0,.25,0,.31-.07.31-.31,0-2.35,0-4.71,0-7.06,0-.39.2-.63.5-.63.31,0,.5.23.5.62,0,2.36,0,4.73,0,7.09,0,.24.07.29.29.29,1.3-.01,2.6-.01,3.9,0,.24,0,.32-.05.31-.31-.01-2.14,0-4.29,0-6.43Zm11,.01h0c0-2.06,0-4.12,0-6.19,0-.29-.03-.58-.09-.87-.27-1.3-.92-2.42-1.65-3.5-.19-.27-.45-.27-.67,0-.52.62-.99,1.28-1.39,1.99-.48.86-.73,1.76-.72,2.76.03,2.62.01,5.25.01,7.87,0,.07.01.15,0,.22-.06.26-.22.42-.5.43-.29,0-.43-.17-.49-.43-.02-.09,0-.19,0-.28,0-2.79,0-5.58,0-8.37,0-.11,0-.23-.02-.34-.24-1.44-.9-2.69-1.72-3.86-.18-.26-.43-.25-.65,0-.63.75-1.19,1.55-1.62,2.44-.26.55-.48,1.12-.48,1.73,0,4.3,0,8.6,0,12.9,0,.19.06.22.23.22,1.34,0,2.69,0,4.03,0,.19,0,.25-.05.25-.24-.01-.72,0-1.44,0-2.16,0-.38.18-.59.48-.6.31,0,.52.23.52.61,0,.71.01,1.42,0,2.12,0,.23.07.27.28.27,1.3,0,2.6-.01,3.9,0,.26,0,.33-.06.33-.32-.01-2.13,0-4.27,0-6.4Zm-7.09-18.47c-.77.74-1.37,1.56-1.86,2.48-.57,1.07-.86,2.21-1.04,3.4-.05.32-.23.5-.5.49-.29,0-.45-.17-.5-.52-.04-.29-.08-.58-.14-.86-.55-2.49-1.86-4.48-3.93-5.98-.2-.14-.32-.15-.5.03-.87.9-1.7,1.83-2.44,2.84-.18.25-.18.4.05.59.14.12.24.28.36.43.4.48.72,1.03,1.07,1.6.04-.24.06-.42.09-.6.17-1.1.48-2.16.97-3.17.14-.29.41-.39.67-.28.25.11.37.41.24.68-.58,1.22-.91,2.51-.98,3.87-.07,1.29-.05,2.59.14,3.91.4-.58.78-1.13,1.22-1.65.68-.8,1.71-.75,2.3.11.55.79,1.01,1.64,1.4,2.52.08-.02.09-.08.11-.12.48-.91,1.05-1.77,1.73-2.55.65-.75,1.68-.68,2.23.13.28.41.54.82.84,1.29.29-3.06.25-5.99-1.53-8.65Zm-3.43,3.46s.07-.04.08-.05c.75-2.12,2.06-3.83,3.87-5.16.17-.13.12-.19,0-.3-1.04-.91-2.13-1.77-3.29-2.53-.44-.29-.83-.29-1.26,0-1.12.74-2.18,1.57-3.19,2.45-.22.19-.24.28,0,.46,1.78,1.32,3.03,3.03,3.79,5.13Zm6,5.64c.41-.66.87-1.27,1.37-1.86.65-.77,1.69-.72,2.25.11.24.36.47.72.71,1.09.07-.05.03-.11.03-.15-.29-1.82-.98-3.48-1.92-5.06-.14-.23-.21-.1-.31.01-.88,1.02-1.51,2.18-1.86,3.49-.21.77-.32,1.55-.27,2.36Zm-16.38-.27c.12,0,.13-.07.16-.12.36-.52.72-1.04,1.14-1.52.63-.7,1.66-.63,2.2.14.12.18.25.36.36.55.19.3.37.61.57.95.15-1.69-1.12-4.8-2.34-5.75-1.1,1.77-1.85,3.66-2.1,5.75Zm16.42-4.29c.46-.85.96-1.57,1.56-2.2.14-.15.09-.24,0-.37-.7-.97-1.47-1.88-2.31-2.74-.43-.44-.42-.43-.91-.07-.13.1-.17.17-.07.32.97,1.52,1.53,3.17,1.73,5.05Z"/>
  <path class="cls-1" d="m10.49,21.01c.26,0,.5.21.51.48.01.29-.2.51-.5.52-.27,0-.49-.21-.5-.48,0-.26.22-.5.48-.51Z"/>
</svg>