<?xml version="1.0" encoding="UTF-8"?>
<svg id="Layer_1" data-name="Layer 1" xmlns="http://www.w3.org/2000/svg" viewBox="0 0 32 32">
  <defs>
    <style>
      .cls-1 {
        fill: #eaae8e;
      }

      .cls-2 {
        fill: #e39b74;
      }

      .cls-3 {
        fill: #dd8858;
      }
    </style>
  </defs>
  <path class="cls-2" d="m12.77,0v.72c.05.08.08.18.08.28.05.59.06,1.19.05,1.79v4.27c0,.15-.05.3-.13.41v16.32s.03,0,.04,0c.91,0,1.65,1.63,1.65,3.64s-.74,3.64-1.65,3.64c-.01,0-.03,0-.04,0v.95h10.32V0h-10.32Zm4.56,2.77c0-.39.32-.71.71-.71s.71.32.71.71v7.91c0,.39-.32.71-.71.71s-.71-.32-.71-.71V2.77Zm-3,3.28c0-.39.32-.71.71-.71s.71.32.71.71v1.9c0,.39-.32.71-.71.71s-.71-.32-.71-.71v-1.9Zm-.1,4.9c0-.39.32-.71.71-.71s.71.32.71.71v3.66c0,.39-.32.71-.71.71s-.71-.32-.71-.71v-3.66Zm4.15,17.42c-.13.82-.25,1.59-.19,2.34.03.39-.25.74-.65.77-.02,0-.04,0-.06,0-.37,0-.68-.28-.71-.65-.08-.93.06-1.82.2-2.69.13-.8.25-1.55.19-2.28-.06-.75-.31-1.51-.54-2.17-.64-1.81-1.46-3.71-2.52-5.81-.18-.35-.04-.78.31-.96.35-.18.78-.04.96.31,1.09,2.15,1.94,4.11,2.6,5.98.26.74.54,1.61.61,2.53.07.9-.07,1.77-.21,2.61Zm2.94,2.22c0,.39-.32.71-.71.71s-.71-.32-.71-.71v-4.24c0-.39.32-.71.71-.71s.71.32.71.71v4.24Zm.17-17.4c-.34.26-.66.62-1,1.13-.52.79-1.13,2.02-1.07,3.37.06,1.19.69,2.24,1.6,2.7.35.18.5.6.32.96-.12.25-.38.4-.64.4-.11,0-.21-.02-.32-.07-1.37-.68-2.3-2.21-2.39-3.9-.07-1.37.38-2.83,1.3-4.22.43-.66.86-1.13,1.34-1.49.32-.24.76-.17,1,.14.24.32.17.76-.14,1Z"/>
  <path class="cls-3" d="m11.16,27.42c0-1.98.72-3.59,1.61-3.63V7.47c-.13.18-.34.3-.58.3-.39,0-.71-.32-.71-.71V2.77c.01-.56,0-1.11-.05-1.65-.03-.39.26-.74.65-.77.29-.02.55.13.68.37v-.72h-3.87v32h3.87v-.95c-.9-.05-1.61-1.65-1.61-3.63Z"/>
  <path class="cls-1" d="m18.04,11.4c.39,0,.71-.32.71-.71V2.77c0-.39-.32-.71-.71-.71s-.71.32-.71.71v7.91c0,.39.32.71.71.71Z"/>
  <path class="cls-1" d="m12.09.35c-.39.03-.69.38-.65.77.04.54.06,1.09.05,1.65v4.29c0,.39.32.71.71.71.24,0,.45-.12.58-.3.08-.12.13-.26.13-.41V2.79c.01-.59,0-1.19-.05-1.79,0-.1-.04-.2-.08-.28-.13-.24-.4-.4-.68-.37Z"/>
  <path class="cls-1" d="m20.63,12.05c-.48.36-.9.83-1.34,1.49-.92,1.39-1.37,2.85-1.3,4.22.08,1.69,1.02,3.22,2.39,3.9.1.05.21.07.32.07.26,0,.51-.15.64-.4.18-.35.03-.78-.32-.96-.91-.45-1.54-1.51-1.6-2.7-.07-1.34.54-2.57,1.07-3.37.34-.52.66-.87,1-1.13.32-.24.38-.68.14-1-.24-.32-.68-.38-1-.14Z"/>
  <path class="cls-1" d="m17.98,23.22c-.66-1.87-1.51-3.83-2.6-5.98-.18-.35-.61-.49-.96-.31-.35.18-.49.61-.31.96,1.06,2.1,1.89,4,2.52,5.81.23.65.48,1.41.54,2.17.06.73-.06,1.49-.19,2.28-.14.87-.28,1.76-.2,2.69.03.37.34.65.71.65.02,0,.04,0,.06,0,.39-.03.68-.38.65-.77-.07-.75.06-1.52.19-2.34.13-.84.27-1.71.21-2.61-.07-.93-.35-1.79-.61-2.53Z"/>
  <path class="cls-1" d="m20.61,25.64c-.39,0-.71.32-.71.71v4.24c0,.39.32.71.71.71s.71-.32.71-.71v-4.24c0-.39-.32-.71-.71-.71Z"/>
  <path class="cls-1" d="m14.95,15.32c.39,0,.71-.32.71-.71v-3.66c0-.39-.32-.71-.71-.71s-.71.32-.71.71v3.66c0,.39.32.71.71.71Z"/>
  <path class="cls-1" d="m15.05,8.67c.39,0,.71-.32.71-.71v-1.9c0-.39-.32-.71-.71-.71s-.71.32-.71.71v1.9c0,.39.32.71.71.71Z"/>
  <path class="cls-1" d="m11.16,27.42c0,1.98.72,3.59,1.61,3.63.01,0,.03,0,.04,0,.91,0,1.65-1.63,1.65-3.64s-.74-3.64-1.65-3.64c-.01,0-.03,0-.04,0-.9.05-1.61,1.65-1.61,3.63Z"/>
</svg>