<?xml version="1.0" encoding="UTF-8"?>
<svg id="Layer_1" data-name="Layer 1" xmlns="http://www.w3.org/2000/svg" viewBox="0 0 32 32">
  <defs>
    <style>
      .cls-1 {
        fill: #eaae8e;
      }

      .cls-2 {
        fill: #603813;
      }

      .cls-3 {
        fill: #e39b74;
      }

      .cls-4 {
        fill: #dd8858;
      }
    </style>
  </defs>
  <path class="cls-2" d="m31.99.42q0-.42-.4-.42h-9.03c-3.01,0-6.01,0-9.02,0-.23,0-.39.06-.55.22-2.41,2.42-4.83,4.84-7.24,7.26-1.85,1.84-3.7,3.69-5.56,5.55-.09.1-.2.19-.2.35,0,.87,0,1.73,0,2.6,0,.17.07.24.24.23.26,0,.51,0,.76,0,.2,0,.29.05.28.26-.02.31,0,.63,0,.94q0,.42.43.48c1.38.17,2.7.57,3.95,1.17,1.92.93,3.57,2.21,4.99,3.82,1.25,1.43,2.24,3.03,2.88,4.83.31.87.51,1.76.63,2.67.04.36.05.36.39.36s.69,0,1.03,0c.18,0,.26.05.25.24,0,.25,0,.49,0,.74,0,.23.08.3.3.3.79,0,1.57-.02,2.36,0,.23,0,.4-.07.56-.24,4.24-4.25,8.49-8.49,12.74-12.74.17-.17.25-.34.25-.58,0-6,0-12.02,0-18.02Zm-13.94,29.98q0,.35-.34.35c-.68,0-.67,0-.68-.67,0-.68.1-.59-.6-.6h-.94c-.16,0-.25-.05-.28-.22-.7-3.43-2.49-6.24-5.04-8.59-1.94-1.79-4.17-3.09-6.75-3.74-.22-.05-.44-.11-.67-.15-.19-.03-.26-.11-.26-.31,0-.4,0-.8,0-1.2,0-.22-.06-.33-.31-.31-.25.02-.51,0-.76,0-.15,0-.21-.05-.21-.2,0-.21,0-.41,0-.62,0-.15.07-.21.21-.2.07,0,.13,0,.2,0h16.23c.11,0,.17.06.17.17v16.29Zm0-17.15c-5.35,0-10.69,0-16.04,0-.07,0-.13,0-.25,0l7.7-7.7c.97-.97,1.94-1.94,2.91-2.91.41-.41.83-.82,1.22-1.23.12-.11.25-.11.39-.11h16.21c0,.09-.07.13-.12.17-3.87,3.87-7.75,7.75-11.61,11.62-.12.12-.24.18-.41.18Zm12.56,5.17c-1.09,1.09-2.17,2.16-3.26,3.26-.99.99-1.97,1.97-2.96,2.96-.84.85-1.68,1.67-2.52,2.51-.86.87-1.71,1.72-2.58,2.59-.15.15-.3.32-.45.48-.11-.1-.08-.2-.08-.28v-15.92c0-.19.05-.33.19-.47,3.85-3.85,7.71-7.7,11.55-11.55.07-.06.13-.12.22-.21v1.84c0,4.83,0,9.66,0,14.49,0,.13-.04.22-.13.31Z"/>
  <path class="cls-1" d="m18.05,14.11v16.29q0,.35-.34.35c-.68,0-.67,0-.68-.67,0-.68.1-.59-.6-.6h-.94c-.16,0-.25-.05-.28-.22-.7-3.43-2.49-6.24-5.04-8.59-1.94-1.79-4.17-3.09-6.75-3.74-.22-.05-.44-.11-.67-.15-.19-.03-.26-.11-.26-.31,0-.4,0-.8,0-1.2,0-.22-.06-.33-.31-.31-.25.02-.51,0-.76,0-.15,0-.21-.05-.21-.2,0-.21,0-.41,0-.62,0-.15.07-.21.21-.2.07,0,.13,0,.2,0h16.23c.11,0,.17.06.17.17Z"/>
  <path class="cls-4" d="m30.73,18.1c0,.13-.04.22-.13.31-1.09,1.09-2.17,2.16-3.26,3.26-.99.99-1.97,1.97-2.96,2.96-.84.85-1.68,1.67-2.52,2.51-.86.87-1.71,1.72-2.58,2.59-.15.15-.3.32-.45.48-.11-.1-.08-.2-.08-.28v-15.92c0-.19.05-.33.19-.47,3.85-3.85,7.71-7.7,11.55-11.55.07-.06.13-.12.22-.21v1.84c0,4.83,0,9.66,0,14.49Z"/>
  <path class="cls-3" d="m30.18,1.27c0,.09-.07.13-.12.17-3.87,3.87-7.75,7.75-11.61,11.62-.12.12-.24.18-.41.18-5.35,0-10.69,0-16.04,0-.07,0-.13,0-.25,0l7.7-7.7c.97-.97,1.94-1.94,2.91-2.91.41-.41.83-.82,1.22-1.23.12-.11.25-.11.39-.11h16.21Z"/>
</svg>