<?xml version="1.0" encoding="UTF-8"?>
<svg id="Layer_1" data-name="Layer 1" xmlns="http://www.w3.org/2000/svg" viewBox="0 0 32 32">
  <defs>
    <style>
      .cls-1 {
        fill: #fcd462;
      }

      .cls-2 {
        fill: #f6c358;
      }

      .cls-3 {
        fill: none;
        stroke: #fcd462;
        stroke-linecap: round;
        stroke-linejoin: round;
        stroke-width: 2.43px;
      }
    </style>
  </defs>
  <path class="cls-2" d="m25.04,16c0,4.99-4.05,9.04-9.04,9.04-2.82,0-5.34-1.29-7-3.32,1.56,1.28,3.55,2.04,5.72,2.04,4.99,0,9.04-4.05,9.04-9.04,0-2.17-.77-4.16-2.04-5.72,2.02,1.66,3.32,4.18,3.32,7Z"/>
  <path class="cls-1" d="m23.77,14.73c0,4.99-4.05,9.04-9.04,9.04-2.17,0-4.16-.77-5.72-2.04-1.28-1.56-2.04-3.55-2.04-5.72,0-4.99,4.05-9.04,9.04-9.04,2.17,0,4.16.77,5.72,2.04,1.28,1.56,2.04,3.55,2.04,5.72Z"/>
  <line class="cls-3" x1="16" y1="4.17" x2="16" y2="1.5"/>
  <line class="cls-3" x1="10.08" y1="5.75" x2="8.75" y2="3.44"/>
  <line class="cls-3" x1="5.75" y1="10.08" x2="3.44" y2="8.75"/>
  <line class="cls-3" x1="4.17" y1="16" x2="1.5" y2="16"/>
  <line class="cls-3" x1="5.75" y1="21.92" x2="3.44" y2="23.25"/>
  <line class="cls-3" x1="10.08" y1="26.25" x2="8.75" y2="28.56"/>
  <line class="cls-3" x1="16" y1="27.83" x2="16" y2="30.5"/>
  <line class="cls-3" x1="21.92" y1="26.25" x2="23.25" y2="28.56"/>
  <line class="cls-3" x1="26.25" y1="21.92" x2="28.56" y2="23.25"/>
  <line class="cls-3" x1="27.83" y1="16" x2="30.5" y2="16"/>
  <line class="cls-3" x1="26.25" y1="10.08" x2="28.56" y2="8.75"/>
  <line class="cls-3" x1="21.92" y1="5.75" x2="23.25" y2="3.44"/>
</svg>