<?xml version="1.0" encoding="UTF-8"?>
<svg id="Layer_1" data-name="Layer 1" xmlns="http://www.w3.org/2000/svg" viewBox="0 0 32 32">
  <defs>
    <style>
      .cls-1 {
        fill: none;
        stroke: #fcd462;
        stroke-linecap: round;
        stroke-linejoin: round;
        stroke-width: 1.67px;
      }

      .cls-2 {
        fill: #fcd462;
      }

      .cls-3 {
        fill: #1db6f2;
      }

      .cls-4 {
        fill: #f6c358;
      }

      .cls-5 {
        fill: #e6e6e6;
      }

      .cls-6 {
        fill: #f2f2f2;
      }
    </style>
  </defs>
  <g>
    <path class="cls-4" d="m26.23,16c0,3.44-2.79,6.23-6.23,6.23-1.95,0-3.68-.89-4.83-2.29,1.07.88,2.45,1.41,3.95,1.41,3.44,0,6.23-2.79,6.23-6.23,0-1.5-.53-2.87-1.41-3.95,1.4,1.14,2.29,2.88,2.29,4.83Z"/>
    <path class="cls-2" d="m25.36,15.12c0,3.44-2.79,6.23-6.23,6.23-1.5,0-2.87-.53-3.95-1.41-.88-1.07-1.41-2.45-1.41-3.95,0-3.44,2.79-6.23,6.23-6.23,1.5,0,2.87.53,3.95,1.41.88,1.07,1.41,2.45,1.41,3.95Z"/>
    <line class="cls-1" x1="20" y1="7.84" x2="20" y2="6"/>
    <line class="cls-1" x1="15.92" y1="8.93" x2="15" y2="7.34"/>
    <line class="cls-1" x1="12.93" y1="11.92" x2="11.34" y2="11"/>
    <line class="cls-1" x1="11.84" y1="16" x2="10" y2="16"/>
    <line class="cls-1" x1="12.93" y1="20.08" x2="11.34" y2="21"/>
    <line class="cls-1" x1="15.92" y1="23.07" x2="15" y2="24.66"/>
    <line class="cls-1" x1="20" y1="24.16" x2="20" y2="26"/>
    <line class="cls-1" x1="24.08" y1="23.07" x2="25" y2="24.66"/>
    <line class="cls-1" x1="27.07" y1="20.08" x2="28.66" y2="21"/>
    <line class="cls-1" x1="28.16" y1="16" x2="30" y2="16"/>
    <line class="cls-1" x1="27.07" y1="11.92" x2="28.66" y2="11"/>
    <line class="cls-1" x1="24.08" y1="8.93" x2="25" y2="7.34"/>
  </g>
  <g>
    <path d="m13.57,31.93c-1.14-.33-2.29-.64-3.43-1-.55-.17-1.11-.18-1.67-.18-1.09,0-2.19,0-3.28,0-.32,0-.44-.05-.44-.45,0-9.53,0-19.06,0-28.59,0-.33.02-.46.46-.46,1.32,0,2.65.03,3.97-.02.52-.02,1.05-.19,1.56-.33.96-.26,1.91-.56,2.86-.84C13.69.05,13.78.02,13.88,0c.42,0,.83,0,1.25,0,.06.4.12.8.19,1.25h.27c2.36,0,4.73,0,7.09,0,.48,0,.58.09.58.58,0,9.45,0,18.91,0,28.36,0,.06,0,.13,0,.19-.03.24-.1.39-.41.39-2.42-.02-4.83,0-7.25,0h-.34c0,.27,0,.53,0,.79,0,.41-.07.47-.46.46-.41-.01-.82-.04-1.23-.07Zm.18-31.31c-.09.01-.17.01-.23.03-.96.27-1.92.56-2.89.8-.48.12-.94.41-1.47.3-.02,0-.05.02-.08.04-.11.07-.2.16-.32.2-.72.2-1.43.4-2.16.58-.25.06-.35.17-.35.46.01,8.52,0,17.04,0,25.56q0,.75.71.95s.02.01.03.01c2.07.58,4.14,1.16,6.21,1.73.17.05.35.07.54.1V.62Zm7.99,28.62V2.77h-6.45v26.47h6.45Zm1,1V1.77h-7.46v.48h.35c2.05,0,4.1,0,6.15,0,.43,0,.47.04.47.45,0,8.86,0,17.72,0,26.59,0,.42-.04.46-.47.46-2.06,0-4.12,0-6.19,0h-.33v.49h7.46Zm-8,1.25V.52h-.46v30.97h.46Zm-7.21-1.24s0-.03,0-.04c-.43-.13-.86-.25-1.29-.38-.47-.13-.47-.13-.47-.61,0-8.81,0-17.62,0-26.44,0-.48,0-.47.47-.6.43-.12.86-.25,1.3-.38,0-.01,0-.02-.01-.03h-2.23v28.47h2.24Z"/>
    <path class="cls-5" d="m13.74.62v30.77c-.19-.04-.37-.06-.54-.1-2.07-.57-4.14-1.15-6.21-1.73,0,0-.02-.01-.03-.01q-.71-.2-.71-.95c0-8.52,0-17.04,0-25.56,0-.29.11-.39.35-.46.72-.19,1.44-.38,2.16-.58.12-.03.21-.13.32-.2.02-.02.06-.04.08-.04.53.11.99-.18,1.47-.3.97-.24,1.93-.53,2.89-.8.07-.02.14-.02.23-.03Zm-2.48,14.94c-.08,0-.12,0-.14,0-.6-.26-1.16-.12-1.69.2-.08.05-.15.17-.17.26,0,.06.09.2.14.2.11.01.24-.02.34-.07.42-.19.85-.31,1.28-.07.1.06.21.2.21.31.03.41,0,.83.02,1.25.01.16.09.33.19.46.2.26.52.23.81.29.56.1.98-.19.99-.73.01-.74.02-1.48,0-2.21,0-.23-.1-.52-.25-.65-.37-.3-.81-.16-1.23-.04-.39.11-.58.37-.5.81Z"/>
    <path class="cls-6" d="m22.73,30.24h-7.46v-.49h.33c2.06,0,4.12,0,6.19,0,.43,0,.47-.04.47-.46,0-8.86,0-17.72,0-26.59,0-.41-.04-.45-.47-.45-2.05,0-4.1,0-6.15,0h-.35v-.48h7.46v28.46Z"/>
    <path class="cls-6" d="m14.73,31.49h-.46V.52h.46v30.97Z"/>
    <path class="cls-6" d="m7.52,30.24h-2.24V1.77h2.23s0,.02.01.03c-.43.13-.86.26-1.3.38-.47.13-.47.12-.47.6,0,8.81,0,17.62,0,26.44,0,.48,0,.48.47.61.43.12.86.25,1.29.38,0,.01,0,.03,0,.04Z"/>
    <path d="m11.26,15.56c-.09-.44.11-.7.5-.81.41-.12.86-.25,1.23.04.16.13.25.43.25.65.03.74.02,1.48,0,2.21,0,.54-.43.83-.99.73-.29-.05-.61-.03-.81-.29-.1-.13-.18-.3-.19-.46-.03-.41,0-.83-.02-1.25,0-.11-.11-.25-.21-.31-.43-.24-.86-.12-1.28.07-.11.05-.23.09-.34.07-.06,0-.15-.14-.14-.2.01-.1.08-.21.17-.26.53-.32,1.09-.46,1.69-.2.03.01.06,0,.14,0Zm.49.7c0,.46,0,.89,0,1.32,0,.09.09.22.17.24.17.05.37.04.55.06.25.02.28-.13.28-.33,0-.63,0-1.27,0-1.9,0-.18-.04-.35-.07-.52-1.04.04-.99.1-.9.6.14.04.27.07.39.11.11.39-.13.43-.41.43Z"/>
    <path class="cls-3" d="m11.75,16.26c.29,0,.53-.04.41-.43-.12-.03-.25-.07-.39-.11-.08-.5-.14-.56.9-.6.02.17.06.35.07.52,0,.63,0,1.27,0,1.9,0,.2-.02.36-.28.33-.18-.02-.37-.01-.55-.06-.08-.02-.17-.16-.17-.24-.02-.43,0-.87,0-1.32Z"/>
  </g>
</svg>