<?xml version="1.0" encoding="UTF-8"?>
<svg id="Layer_1" data-name="Layer 1" xmlns="http://www.w3.org/2000/svg" viewBox="0 0 32 32">
  <defs>
    <style>
      .cls-1 {
        fill: #fff;
      }

      .cls-2 {
        fill: #e1d3ce;
      }

      .cls-3 {
        fill: #b4aaaa;
      }

      .cls-4 {
        fill: #fff5f5;
      }

      .cls-5 {
        stroke-width: .78px;
      }

      .cls-5, .cls-6 {
        fill: none;
        stroke: #534741;
        stroke-linecap: round;
        stroke-linejoin: round;
      }

      .cls-6 {
        stroke-width: .59px;
      }
    </style>
  </defs>
  <polygon class="cls-2" points="17.98 13.44 9.19 13.44 22.74 .22 31.54 .22 17.98 13.44"/>
  <polygon class="cls-3" points="9.33 13.44 .54 13.44 14.1 .22 22.89 .22 9.33 13.44"/>
  <polygon class="cls-4" points="31.88 8.72 18.22 21.35 18.22 13.44 31.88 .81 31.88 8.72"/>
  <polygon class="cls-2" points="31.88 19.17 18.22 31.8 18.22 21.15 31.88 8.53 31.88 19.17"/>
  <path class="cls-5" d="m18.69,31.83s11.85-11.85,13.31-13.31V.15"/>
  <path class="cls-5" d="m.05,13.58Q12.41,1.22,13.49.15h18.51"/>
  <line class="cls-6" x1="32" y1=".15" x2="18.22" y2="13.68"/>
  <g>
    <path class="cls-4" d="m18.19,21.62s.02-.03.04-.04c0-1.87,0-3.74,0-5.61-.01-.01-.02-.03-.04-.04-3.03,0-6.06,0-9.09,0h0c0,.2,0,.39,0,.59,0,1.7,0,3.4,0,5.1.09,0,.18,0,.27,0,2.93,0,5.86,0,8.79,0,.01,0,.02,0,.03,0Z"/>
    <path class="cls-2" d="m9.1,15.93c3.03,0,6.06,0,9.09,0,0-.76,0-1.51,0-2.27h-9.09c0,.76,0,1.52,0,2.27Z"/>
    <path class="cls-3" d="m9.1,15.93c0-.76,0-1.52,0-2.27-2.98,0-5.97,0-8.95,0-.12,0-.15.02-.15.15,0,.71,0,1.42,0,2.13.66,0,1.32,0,1.98,0,.08,0,.15,0,.23,0,2.29,0,4.59,0,6.88,0h0Z"/>
    <path class="cls-1" d="m18.19,13.66c0,.76,0,1.51,0,2.27.01.01.02.03.04.04,0-.72,0-1.45,0-2.17,0-.05.04-.11-.03-.14Z"/>
    <path class="cls-2" d="m18.16,21.62c-2.93,0-5.86,0-8.79,0-.09,0-.18,0-.27,0,0,0,0,0,0,0,0,.88,0,1.75,0,2.63.63.29,1.21.66,1.69,1.17.47.49.81,1.07,1.06,1.7.16.42.24.85.3,1.28.01.08-.02.17-.02.26,0,1,0,2,0,3,0,.15.05.19.19.19,1.9,0,3.8,0,5.7,0,.11,0,.19,0,.19-.15,0-3.35,0-6.7,0-10.05-.01-.01-.02-.02-.03-.03Z"/>
    <path class="cls-2" d="m9.1,15.93c-2.29,0-4.59,0-6.88,0-.08,0-.15,0-.23,0,.05.1.16.08.24.12.64.29,1.03.77,1.15,1.46.07.4.02.81.14,1.21.44,1.53,1.43,2.48,3,2.82.23.05.46.08.7.07.63,0,1.25,0,1.88,0,0,0,0,0,0,0,0-1.7,0-3.4,0-5.1,0-.2,0-.39,0-.59Z"/>
    <path class="cls-3" d="m9.09,21.62c-.63,0-1.25,0-1.88,0,0,.7,0,1.41,0,2.11,0,.08-.02.16.12.16.58.03,1.15.12,1.7.34.02,0,.05,0,.07.01,0-.88,0-1.75,0-2.63Z"/>
    <path class="cls-2" d="m18.16,21.62s.02.02.03.03c0-.01,0-.02,0-.03-.01,0-.02,0-.03,0Z"/>
  </g>
  <path class="cls-5" d="m18.23,31.85c-1.97,0-3.95,0-5.92,0-.14,0-.19-.04-.19-.19,0-1,0-2,0-3,0-.09-.12-1.13-.28-1.54-.25-.63-.59-1.21-1.06-1.7-.48-.51-1.06-.88-1.69-1.17-.02,0-.05,0-.07-.01-.54-.22-1.12-.31-1.7-.34-.13,0-.12-.08-.12-.16,0-.7,0-1.41,0-2.11-.24,0-.47-.02-.7-.07-1.56-.34-2.55-1.29-3-2.82-.11-.4-.07-.81-.14-1.21-.12-.69-.51-1.17-1.15-1.46-.08-.04-.19-.02-.24-.12-.66,0-1.32,0-1.98,0C0,15.22,0,14.51,0,13.8c0-.12.02-.15.15-.15"/>
  <path class="cls-6" d="m.15,13.65c.76,0,1.52,0,2.27,0,2.23,0,4.45,0,6.68,0h9.09c.07.03.03.1.03.14,0,.72,0,17.41,0,18.05"/>
</svg>