<?xml version="1.0" encoding="UTF-8"?>
<svg id="Layer_1" data-name="Layer 1" xmlns="http://www.w3.org/2000/svg" viewBox="0 0 32 32">
  <defs>
    <style>
      .cls-1 {
        fill: #333;
      }
    </style>
  </defs>
  <path class="cls-1" d="m10.32,31.75c-.04-.19-.11-.39-.11-.58,0-1.59,0-3.18,0-4.78,0-3.78,0-7.55,0-11.33.01-.08.02-.15.04-.23-.02,0-.04-.01-.06-.02-.04.04-.08.08-.12.12-.51.27-1.03.5-1.61.6-.3.05-.53.03-.77-.1-.04,0-.08,0-.12,0-.27-.03-.56-.01-.81-.1-1.05-.38-1.84-1.07-2.34-2.08-.06-.11-.07-.25-.11-.37l-.05-.11c-.04-.19-.09-.38-.13-.57-.02-.04-.04-.08-.06-.12-.26-1.74.36-3.15,1.58-4.31-.34-.58-.67-1.15-1-1.72-.21-.37-.41-.75-.63-1.11-.05-.08-.18-.15-.28-.17-.18-.03-.37,0-.56,0-.55,0-.8-.24-.8-.8,0-1.06,0-2.12,0-3.19,0-.4.13-.58.52-.71.04-.01.07-.04.1-.06.12,0,.25,0,.37,0,8.43,0,16.85,0,25.28,0,.18,0,.37.03.54.07.26.06.42.33.43.73,0,1.05.02,2.1,0,3.15-.01.47-.22.88-.84.78-.65-.1-.98.16-1.26.74-.34.73-.8,1.4-1.21,2.1-.02.02-.04.03-.07.05-.02,0-.03.01-.05.02.02.02.03.03.05.05h0c.48.46.91.96,1.2,1.56.02.02.03.04.05.07.11.29.21.58.32.86.04.07.09.13.13.2,0,.22.03.44-.02.65-.07.29.02.57,0,.85-.02.31-.11.61-.18.91-.03.11-.08.22-.13.33-.02.02-.03.05-.05.07,0,.02-.01.04-.01.06-.02.02-.03.05-.05.07-.48.98-1.28,1.61-2.27,2-1.16.45-2.25.26-3.29-.38-.05-.04-.09-.08-.2-.18.02.16.03.24.04.33,0,1.71-.01,3.42,0,5.12,0,.51-.11.9-.65,1.05-.51-.18-.61-.32-.61-.85,0-1.32,0-2.64,0-3.97q0-.68-.69-.68h-1.5c0,.17,0,.3,0,.42,0,5.07,0,10.14,0,15.21-.02.3-.24.46-.45.61h-.37c-.21-.16-.42-.33-.44-.62,0-.09.02-.19.02-.28,0-5,0-10,0-15,0-.1-.01-.2-.02-.33h-5.6v.37c0,4.97,0,9.95,0,14.92,0,.4-.1.73-.47.94h-.5c-.06-.08-.12-.17-.18-.25ZM6.01,13.38s.04.04.05.07c.13.12.25.25.39.35.5.37,1.1.54,1.68.5.85-.06,1.52-.51,1.88-1.33.43-.99.04-1.99-.89-2.31-.76-.26-1.55.08-1.64.92-.02.2-.1.43-.24.57-.28.29-.55.24-.93-.08-.02-.24-.08-.48-.06-.72.05-.57.32-1.05.74-1.41.53-.46,1.17-.65,1.88-.61.07.02.15.03.22.06.41.15.89.22,1.23.47.46.34.8.84.98,1.41.07.22.17.25.37.25,2.89,0,5.78,0,8.67,0h.25c.15-.64.48-1.16.96-1.57.02-.02.05-.03.07-.05.42-.35.92-.47,1.43-.58.04-.04.09-.07.13-.11.21.06.42.11.63.18.21.07.42.13.62.22.68.3,1.05.85,1.23,1.54.08.32.16.63-.08.94-.16.21-.38.3-.57.21-.19-.09-.35-.29-.47-.48-.1-.15-.1-.36-.17-.54-.33-.91-1.69-.87-2.19-.15-.02.02-.04.03-.06.05-.13.29-.33.57-.36.86-.08.84.37,1.47,1.02,1.93.34.24.76.39,1.21.28.04-.04.09-.07.13-.11.41.21.74-.02,1.08-.19.24-.13.45-.3.67-.46.02-.02.03-.03.05-.05.11-.16.24-.31.33-.48.16-.31.35-.62.43-.95.07-.29.01-.61,0-.91,0-.13-.07-.26-.09-.33-.01-.66-.31-1.13-.65-1.59-.02-.02-.04-.04-.06-.06-.55-.65-1.21-1.11-2.07-1.26-.02-.03-.04-.06-.06-.09-.02.03-.04.06-.06.09-.89-.04-1.79-.11-2.68-.11-3.51-.01-7.01,0-10.52,0-.88,0-1.77-.05-2.63.18-.07.02-.15-.03-.23-.04-.16-.05-.21.03-.2.17-.05.02-.09.04-.14.07-.8.42-1.4,1.03-1.76,1.87-.3.68-.35,1.36-.18,2.08.11.48.28.9.65,1.24,0,.02.01.04.02.06Zm7.49-.61h-2.01v1.73h9.02v-1.73h-7.01Zm-3.62-6.27c.12,0,.25,0,.37,0,4.55,0,9.1,0,13.65,0,.48,0,.96,0,1.44,0,.07,0,.19,0,.22-.06.32-.55.63-1.11.96-1.68-.06,0-.07,0-.08,0-5.74,0-11.47,0-17.21,0-.07,0-.15.04-.22.06-.13-.02-.26-.06-.39-.06-.99,0-1.98,0-2.97,0-.08,0-.17.01-.28.02.31.54.59,1.04.89,1.53.05.08.16.18.25.18,1.12,0,2.25,0,3.37,0Zm-2.56-3c.06,0,.12,0,.19,0,6.88,0,13.77,0,20.65,0,.07,0,.14,0,.2-.01V1.26c-.1,0-.18,0-.27,0-6.84,0-13.69,0-20.53,0-.08,0-.17,0-.25,0h-3.67v2.23c1.23,0,2.45,0,3.67,0Z"/>
  <path class="cls-1" d="m13.75,32c-.03-.46-.1-.93-.1-1.39,0-3.44,0-6.89-.01-10.33,0-.39.16-.71.72-.73.29.09.5.25.51.58,0,.15.02.29.02.44,0,3.61,0,7.22,0,10.83-.02.3-.24.46-.45.61h-.69Z"/>
  <path class="cls-1" d="m21.55,31.81c-.08.06-.16.12-.25.19h-.37c-.21-.16-.41-.33-.44-.62,0-.11.02-.23.02-.34,0-1.66.01-3.31,0-4.97,0-.49.12-.82.62-.95.08.04.16.09.24.13.04.02.08.03.13.05.09.22.26.43.27.65.02,1.74.01,3.49,0,5.23,0,.17-.06.34-.09.5-.17-.08-.1.07-.13.13Z"/>
  <path class="cls-1" d="m21.13,23.89c-.35-.06-.62-.32-.63-.61-.01-.26.21-.51.55-.6.03,0,.05-.03.08-.05.19.12.44.21.54.38.22.37-.05.78-.54.88Z"/>
  <path class="cls-1" d="m23.81,7.87s-.08,0-.13,0c.02-.03.04-.06.06-.09.02.03.04.06.06.09Z"/>
  <path class="cls-1" d="m14.37,16.68c.25.12.49.25.51.58.02.38-.21.55-.51.68-.43-.01-.75-.28-.75-.63,0-.34.3-.6.75-.63Z"/>
</svg>