<?xml version="1.0" encoding="UTF-8"?>
<svg id="Layer_1" data-name="Layer 1" xmlns="http://www.w3.org/2000/svg" viewBox="0 0 32 32">
  <defs>
    <style>
      .cls-1 {
        fill: #e8edf3;
      }

      .cls-2 {
        fill: #fff;
      }

      .cls-3 {
        fill: #ef6d3f;
      }
    </style>
  </defs>
  <path class="cls-1" d="m18.14,18.24c0-.09-.07-.13-.14-.16-1.05-.47-2.09-.94-3.14-1.41-.2-.09-.4-.1-.62,0-1.35.63-2.71,1.24-4.06,1.88-.3.14-.56.15-.88,0-1.36-.64-2.73-1.25-4.1-1.87-.22-.1-.46-.09-.69.01-1.2.55-2.4,1.09-3.6,1.64-.51.23-.84.02-.84-.54,0-5.36,0-10.72,0-16.08,0-.28-.13-.54-.03-.83C.25.29.58.03,1.21.03c5.22,0,10.44.02,15.66-.02.98,0,1.7.31,2.36.99,1.41,1.44,2.84,2.85,4.26,4.28.53.52.81,1.14.8,1.9-.02,1.13,0,2.26,0,3.39-.03,0-.07,0-.1,0-.86-.2-1.48.04-1.97.78-.18.28-.34.57-.51.85-.7,1.19-1.4,2.39-2.1,3.58-.49.82-.97,1.65-1.46,2.47Z"/>
  <path class="cls-1" d="m24.28,25.36c0,1.74-.03,3.49,0,5.23.02.94-.51,1.36-1.37,1.36-7.07-.03-14.14-.01-21.21-.02-.29,0-.58.13-.89,0-.39-.17-.78-.57-.77-1.11.02-2.95.02-5.9,0-8.85,0-.35.11-.55.44-.69,1.37-.61,2.74-1.23,4.11-1.86.22-.1.42-.08.62.01.99.45,1.97.9,2.96,1.35.42.19.84.38,1.26.57.21.09.42.09.62,0,1.41-.64,2.81-1.28,4.22-1.92.13-.06.26-.13.4-.07.73.32,1.5.59,2.18,1.02-.15.42-.44.78-.64,1.17-.22.43-.56.81-.69,1.28-.24.82.05,1.63.73,2.14.34.25.7.37,1.12.37,2.3,0,4.6,0,6.9,0Z"/>
  <path class="cls-3" d="m24.28,25.36c-2.3,0-4.6-.01-6.9,0-.42,0-.79-.12-1.12-.37-.69-.52-.97-1.32-.73-2.14.14-.47.47-.85.69-1.28.2-.4.49-.75.64-1.17.4-.51.66-1.11,1.01-1.65.1-.16.19-.33.28-.5.49-.82.98-1.65,1.46-2.47.7-1.19,1.4-2.39,2.1-3.58.17-.28.33-.57.51-.85.49-.75,1.1-.99,1.97-.78.03,0,.06,0,.1,0,.58.2.91.66,1.2,1.16,1.06,1.82,2.12,3.64,3.18,5.45.98,1.68,1.96,3.36,2.96,5.03.39.66.51,1.38.2,2.03-.33.69-.97,1.12-1.8,1.12-1.8,0-3.59,0-5.39,0-.12,0-.24,0-.35.01Zm-1.1-8.14c0,1.03,0,2.06,0,3.09,0,.34.22.62.49.64.32.02.58-.23.61-.61,0-.07,0-.15,0-.23,0-1.62,0-3.25,0-4.87,0-.56.03-1.11-.08-1.66-.05-.22-.21-.31-.44-.33-.26-.02-.51.07-.53.3-.01.24-.07.47-.06.72.02.98,0,1.96,0,2.93Zm0,5.37c0,.28.22.54.49.56.3.02.59-.24.6-.53.01-.27-.25-.56-.53-.57-.34-.01-.56.2-.57.54Z"/>
  <path class="cls-2" d="m23.18,17.22c0-.98.01-1.96,0-2.93,0-.24.05-.48.06-.72.01-.23.27-.32.53-.3.23.01.4.1.44.33.11.55.07,1.11.08,1.66,0,1.62,0,3.25,0,4.87,0,.08,0,.15,0,.23-.03.37-.29.63-.61.61-.27-.02-.49-.3-.49-.64,0-1.03,0-2.06,0-3.09Z"/>
  <path class="cls-2" d="m23.18,22.59c0-.34.23-.56.57-.54.28,0,.54.29.53.57-.02.3-.3.55-.6.53-.27-.02-.5-.28-.49-.56Z"/>
</svg>