<?xml version="1.0" encoding="UTF-8"?>
<svg id="Layer_1" data-name="Layer 1" xmlns="http://www.w3.org/2000/svg" viewBox="0 0 32 32">
  <defs>
    <style>
      .cls-1 {
        fill: #e2dfe2;
      }

      .cls-1, .cls-2 {
        stroke: #333;
        stroke-linecap: round;
        stroke-linejoin: round;
        stroke-width: 1.2px;
      }

      .cls-2 {
        fill: none;
      }
    </style>
  </defs>
  <rect class="cls-2" x="16" y="3.5" width="12" height="5"/>
  <polyline class="cls-1" points="32 8.06 32 10.5 28 10.5 28 15.5 24 15.5 24 20.5 20 20.5 20 25.5 16 25.5 16 28.5 12 28.5 12 23.5 16 23.5 16 18.5 20 18.5 20 13.5 24 13.5 24 8.5 28 8.5 28 3.5 32 3.5 32 5.79"/>
  <rect class="cls-2" x="12" y="8.5" width="12" height="5"/>
  <rect class="cls-2" x="8" y="13.5" width="12" height="5"/>
  <polyline class="cls-1" points="6.9 23.5 4 23.5 4 18.5 16 18.5 16 23.5 10.78 23.5"/>
  <polyline class="cls-2" points="3.54 23.5 0 23.5 0 28.5 12 28.5 12 23.5 8.82 23.5"/>
</svg>