<?xml version="1.0" encoding="UTF-8"?>
<svg id="Layer_1" data-name="Layer 1" xmlns="http://www.w3.org/2000/svg" viewBox="0 0 32 32">
  <defs>
    <style>
      .cls-1 {
        fill: #c69c6d;
      }

      .cls-1, .cls-2 {
        stroke: #4d4d4d;
        stroke-miterlimit: 10;
        stroke-width: 1.41px;
      }

      .cls-2 {
        fill: #c1272d;
      }
    </style>
  </defs>
  <path class="cls-2" d="m31.5,16.3c-.17.39-.35.76-.72,1.02-.65.46-1.52.46-2.14-.03-.15-.12-.29-.25-.43-.38-3.78-3.78-7.55-7.55-11.33-11.33-.61-.61-1.12-.61-1.74,0-.06.06-.13.13-.19.19-3.73,3.73-7.45,7.45-11.18,11.18-.44.44-.93.74-1.57.69-.71-.05-1.22-.4-1.52-1.04-.29-.63-.22-1.24.17-1.8.09-.13.21-.25.32-.36,3.83-3.83,7.66-7.67,11.5-11.5,1.71-1.71,4.32-1.89,6.2-.45.19.15.36.32.54.49,1.01,1.01,2.02,2.02,3.04,3.03.07.07.14.14.27.26,0-.57,0-1.08,0-1.58,0-.23,0-.46.06-.69.25-.84,1.08-1.42,1.87-1.32.98.13,1.65.82,1.66,1.76.02,1.67.01,3.35,0,5.02,0,.31.09.52.31.74,1.38,1.36,2.74,2.74,4.11,4.1.33.33.63.68.77,1.14v.85Z"/>
  <path class="cls-1" d="m27.23,23.6c0,1.18-.03,2.36,0,3.54.06,1.7-1.36,3.32-3.31,3.32-1.54,0-3.08,0-4.63,0-.44,0-.44,0-.44-.44,0-2.35,0-4.7,0-7.04q0-.44-.43-.44c-1.6,0-3.2,0-4.81,0-.44,0-.44,0-.44.43,0,2.35,0,4.7,0,7.04,0,.44,0,.44-.43.44-1.54,0-3.08,0-4.63,0-1.66-.01-2.99-1.11-3.28-2.7-.04-.22-.04-.44-.04-.66,0-2.41,0-4.82,0-7.23,0-.39.13-.69.4-.97,3.35-3.34,6.69-6.68,10.03-10.02.55-.55,1.02-.55,1.56,0,3.35,3.35,6.7,6.7,10.05,10.04.27.27.39.56.39.94-.01,1.25,0,2.5,0,3.75Z"/>
</svg>