<?xml version="1.0" encoding="UTF-8"?>
<svg id="Layer_1" data-name="Layer 1" xmlns="http://www.w3.org/2000/svg" viewBox="0 0 32 32">
  <defs>
    <style>
      .cls-1 {
        fill: #f29a2e;
      }

      .cls-2 {
        fill: #1b1464;
      }
    </style>
  </defs>
  <path class="cls-2" d="m4.98,13.61c.43-.24.87-.46,1.29-.7.46-.26.92-.52,1.37-.78.79-.46,1.6-.88,2.4-1.32.23-.13.48-.2.71-.33.43-.26.86-.5,1.3-.74.47-.25.93-.51,1.41-.75.42-.21.71,0,.68.46,0,.12-.05.17-.15.24-.52.35-1.09.61-1.63.91-1.55.86-3.11,1.7-4.67,2.56-.77.42-1.55.84-2.32,1.27-.16.09-.33.11-.5.11-1.11,0-2.23,0-3.34,0-.42,0-.64.26-.56.61.05.25.21.39.48.39,1.3,0,2.6,0,3.9,0,.33,0,.55-.25.82-.4.93-.49,1.84-1,2.76-1.5.56-.31,1.11-.64,1.69-.92.41-.2.81-.43,1.21-.64.37-.2.74-.43,1.12-.64.91-.5,1.83-1,2.75-1.5.41-.22.81-.47,1.23-.68.55-.27,1.1-.57,1.63-.87.62-.35,1.25-.67,1.87-1.03.36-.21.71-.44,1.08-.64.35-.18.72-.36,1.06-.59.28-.19.63-.29.93-.47.5-.31,1.05-.5,1.53-.83.52-.35,1.11-.56,1.65-.87.14-.08.29-.09.45-.09,1.09,0,2.19,0,3.28,0,.42,0,.65-.19.65-.53,0-.25-.31-.47-.66-.47-1.19,0-2.37,0-3.56,0-.18,0-.34.03-.5.12-1.01.56-2.02,1.12-3.04,1.68-.72.4-1.45.78-2.17,1.18-.19.11-.37.25-.61.21-.04,0-.1,0-.11.03-.21.47-.73.51-1.1.75-.61.39-1.26.7-1.9,1.05-.43.24-.86.48-1.29.72-.17.1-.36.16-.54.24-.2.09-.39-.1-.49-.29-.1-.19-.1-.37.12-.52.54-.36,1.11-.64,1.68-.95,1.33-.73,2.65-1.47,3.99-2.18.89-.47,1.75-1,2.64-1.47.85-.45,1.68-.93,2.53-1.37.21-.11.46-.14.71-.14,1.23,0,2.46,0,3.68,0,.57,0,1.36.4,1.45,1.03,0,.04.07.06.11.09v.62s-.1.06-.11.1c-.32.78-.71,1.04-1.54,1.04-.66,0-1.31.01-1.97,0-.23,0-.28.07-.27.28.02.48.01.96,0,1.44,0,.2.05.26.26.26.98-.01,1.96,0,2.93-.01.3,0,.53.08.7.33v.37c-.16.21-.38.24-.62.24-1,0-2,0-2.99,0-.21,0-.29.04-.28.27.02.57,0,1.14,0,1.71,0,.43-.12.6-.49.73-.29-.07-.48-.28-.46-.54.07-1.61,0-3.21.03-4.82,0-.25-.09-.26-.28-.16-.14.08-.3.14-.45.2-.23.09-.3.24-.3.49.01,2.73,0,5.47,0,8.2,0,.76,0,.75.77.75.21,0,.26-.07.26-.27-.01-.76,0-1.52,0-2.28,0-.3.12-.47.43-.48.35.03.49.19.5.57,0,.74,0,1.47,0,2.21,0,.2.05.24.24.24.98,0,1.95,0,2.93,0,.32,0,.56.09.72.38v14.86c-.32.33-.74.25-1.13.25-10.11,0-20.23,0-30.34,0-.33,0-.51-.17-.51-.5,0-.93,0-1.85,0-2.78,0-.43.14-.57.58-.57.36,0,.73-.02,1.09,0,.22.01.27-.06.27-.27,0-2.04-.01-4.08,0-6.12,0-.32.04-.49-.38-.39-.32.07-.63-.22-.63-.48,0-.26.29-.52.62-.5.34.03.41-.1.39-.41-.03-.36,0-.73,0-1.09,0-.44,0-.46-.43-.44-.5.02-.89-.18-1.2-.55-.4-.47-.43-1.22-.09-1.67.31-.4.74-.69,1.31-.68,1.14.02,2.29,0,3.43,0,0,.02-.03.04,0,.04,0-.01,0-.03-.01-.04Zm5.78,1.83c.85-.53,1.74-.97,2.62-1.44.16-.08.23-.16.22-.34-.01-.38,0-.77,0-1.15,0-.32-.02-.34-.32-.18-.82.45-1.65.91-2.47,1.36-.12.07-.16.15-.16.29.01.47,0,.93,0,1.4-.02.05-.04.09.03.12.04.02.07,0,.08-.05Zm5.72-3.2s0,.03,0,.05c0-.01.02-.03.03-.04.23,0,.36-.18.54-.27.73-.38,1.45-.78,2.17-1.17.14-.07.22-.18.21-.37-.02-.39-.01-.79,0-1.18,0-.2-.07-.24-.24-.15-.84.46-1.68.94-2.53,1.39-.15.08-.18.17-.18.31,0,.48,0,.96,0,1.43Zm-12.15,9.32c-.35-.03-.42-.26-.42-.57,0-1.28,0-2.56,0-3.84,0-.67,0-.66-.68-.68-.27,0-.34.05-.34.34.01,2.88,0,5.76,0,8.64,0,.75,0,.74.74.74.22,0,.28-.06.28-.28-.01-.9,0-1.81,0-2.71,0-.29.11-.47.42-.48.15,0,.33.01.36.17.04.24.17.45.16.71-.03.61,0,1.23,0,1.84,0,.76,0,.75.76.75.21,0,.25-.07.25-.26-.01-.7,0-1.39,0-2.09,0-.37.16-.54.53-.55.37,0,.75-.02,1.12,0,.24.01.29-.06.29-.29-.01-1.44,0-2.89,0-4.33,0-.12,0-.25,0-.37,0-.12-.03-.15-.15-.08-.29.16-.58.32-.89.45-.58.25-1.05.79-1.76.7-.17-.02-.14.1-.14.2,0,.49,0,.98,0,1.47,0,.32-.18.5-.51.53Zm20.8-12.89c-.1.04-.22.06-.31.11-.75.41-1.5.85-2.26,1.24-.21.11-.26.22-.26.44,0,2.08,0,4.16,0,6.24,0,.82,0,.81.82.76.15-.01.19-.06.19-.21,0-.73,0-1.46,0-2.19,0-.36.11-.52.47-.52.41,0,.81-.01,1.22,0,.21,0,.26-.06.26-.26,0-1.87,0-3.75,0-5.62,0-.02-.01-.05-.03-.06-.04-.01-.07,0-.08.04Zm-9.14,20.44s0,0,0-.01c4.91,0,9.82,0,14.73,0,.2,0,.33,0,.33-.27,0-4.36,0-8.72,0-13.08,0-.2-.06-.24-.25-.24-2.1,0-4.2,0-6.31-.01-.2,0-.27.06-.26.26.01.61.04,1.23,0,1.84-.04.64.04.82-.83.82-1.56,0-3.12,0-4.68,0-.24,0-.32.05-.32.31.02.66,0,1.31,0,1.97,0,.48-.16.63-.63.63-1.62,0-3.25,0-4.87,0-.27,0-.33.08-.32.33.02.63,0,1.27,0,1.9,0,.48-.21.69-.7.69-1.6,0-3.21,0-4.81,0-.24,0-.32.05-.32.3.02.65,0,1.31,0,1.97,0,.48-.14.63-.63.63-1.63,0-3.27,0-4.9,0-.21,0-.29.04-.28.27.02.48.02.96,0,1.44-.01.24.07.28.3.28,4.91,0,9.82,0,14.73,0Zm.49-12.28c0,.93,0,1.85,0,2.78,0,.78,0,.78.77.77.2,0,.24-.07.24-.25-.01-.68,0-1.35,0-2.03,0-.49.14-.63.62-.63.34,0,.69-.02,1.03,0,.24.01.3-.07.3-.3,0-1.71-.01-3.41,0-5.12,0-.3-.1-.27-.29-.16-.82.45-1.64.91-2.47,1.35-.17.09-.19.21-.19.37,0,1.07,0,2.14,0,3.21Zm-5.82,3.07v2.65c0,.76,0,.75.77.75.2,0,.24-.06.24-.25,0-.72,0-1.44,0-2.15,0-.34.23-.53.54-.53.4,0,.79,0,1.19,0,.18,0,.23-.05.23-.22,0-1.64,0-3.29,0-4.93,0-.25-.08-.25-.26-.15-.85.46-1.7.92-2.56,1.37-.15.08-.13.19-.13.31,0,1.05,0,2.1,0,3.15Zm10.72-7.22c0-1.41,0-2.83,0-4.24q0-.51-.44-.28c-.09.05-.18.11-.27.14-.26.09-.33.27-.33.54.01,2.63,0,5.26.01,7.9,0,.24-.14.54.02.69.17.16.48.02.72.05.24.03.29-.07.29-.3,0-1.5,0-3,0-4.49Zm-5.82,3.09v-3.9c0-.75,0-.74-.68-.42-.28.13-.36.29-.36.59.01,2.54,0,5.07,0,7.61,0,.73,0,.72.73.73.25,0,.31-.07.31-.31-.01-1.43,0-2.87,0-4.3Zm-5.83,3.19c0-1.02,0-2.04,0-3.06,0-.37,0-.75,0-1.12,0-.14-.03-.29-.17-.34-.24-.08-.85.44-.85.7,0,2.48,0,4.97,0,7.45,0,.7,0,.69.69.71.29,0,.34-.1.33-.36-.01-1.33,0-2.66,0-3.99Zm-4.89-1.44c0,.23,0,.46,0,.69,0,.09-.07.23.06.27.11.03.24.06.35-.06.05-.05.12-.08.18-.11.73-.4,1.46-.8,2.2-1.19.08-.04.19-.08.18-.18-.05-.45-.01-.91-.02-1.36,0-.16-.08-.19-.19-.12-.37.24-.79.39-1.16.62-.44.27-.88.46-1.4.41-.15-.01-.2.03-.2.19.01.28,0,.56,0,.84ZM25.24,5.81c-.96.52-1.87,1.02-2.77,1.5-.13.07-.18.17-.17.32.01.4,0,.81,0,1.22,0,.07-.04.16.04.2.08.05.17-.03.22-.08.26-.24.59-.35.89-.51.55-.3,1.1-.61,1.66-.89.1-.05.14-.11.14-.21,0-.5,0-.99,0-1.55Z"/>
  <path class="cls-1" d="m4.98,13.61s0,.03.01.04c-.04,0-.02-.02,0-.04,0,0,0,0,0,0Z"/>
  <path class="cls-1" d="m4.33,21.57c0,.39,0,.78,0,1.17-.31.01-.42.19-.42.48,0,.9,0,1.81,0,2.71,0,.22-.06.28-.28.28-.74,0-.74,0-.74-.74,0-2.88,0-5.76,0-8.64,0-.28.07-.34.34-.34.68.02.68,0,.68.68,0,1.28,0,2.56,0,3.84,0,.31.07.53.42.57Z"/>
  <path class="cls-1" d="m27.62,10.45c0,.37,0,.74,0,1.11-.31.01-.43.18-.43.48,0,.76,0,1.52,0,2.28,0,.2-.05.27-.26.27-.77,0-.77.01-.77-.75,0-2.73,0-5.47,0-8.2,0-.25.07-.4.3-.49.15-.06.3-.13.45-.2.19-.1.29-.09.28.16-.03,1.61.04,3.21-.03,4.82-.01.26.18.47.46.54Z"/>
  <path class="cls-1" d="m21.37,12.69c0,1.5,0,3,0,4.49,0,.23-.05.33-.29.3-.25-.03-.56.1-.72-.05-.16-.15-.02-.45-.02-.69,0-2.63,0-5.26-.01-7.9,0-.27.07-.45.33-.54.09-.03.18-.09.27-.14q.44-.23.44.28c0,1.41,0,2.83,0,4.24Z"/>
  <path class="cls-1" d="m15.55,15.77c0,1.43,0,2.87,0,4.3,0,.24-.06.32-.31.31-.73-.01-.73,0-.73-.73,0-2.54,0-5.07,0-7.61,0-.3.08-.46.36-.59.68-.32.68-.34.68.42,0,1.3,0,2.6,0,3.9Z"/>
  <path class="cls-1" d="m9.72,18.96c0,1.33,0,2.66,0,3.99,0,.26-.04.36-.33.36-.69-.02-.69,0-.69-.71,0-2.48,0-4.97,0-7.45,0-.26.62-.78.85-.7.13.04.17.2.17.34,0,.37,0,.75,0,1.12,0,1.02,0,2.04,0,3.06Z"/>
  <path class="cls-1" d="m10.65,15.38s.07.04.1.06c0,.05-.03.07-.08.05-.06-.02-.04-.07-.03-.12Z"/>
  <path class="cls-1" d="m25.24,8.69s-.07,0-.11-.01c.01-.04.04-.06.08-.04.02,0,.02.04.03.06Z"/>
  <path class="cls-1" d="m16.48,12.25h.02s.01,0,.01,0c0,.01-.02.03-.03.04,0-.02,0-.03,0-.05Z"/>
</svg>