<?xml version="1.0" encoding="UTF-8"?>
<svg id="Layer_1" data-name="Layer 1" xmlns="http://www.w3.org/2000/svg" viewBox="0 0 32 32">
  <defs>
    <style>
      .cls-1 {
        fill: #006b77;
      }

      .cls-2 {
        fill: #36464e;
      }

      .cls-3 {
        fill: #00bcd4;
      }

      .cls-4 {
        fill: #6f6f6f;
      }

      .cls-5 {
        fill: #fdfdfd;
      }

      .cls-6 {
        fill: #00808c;
      }

      .cls-7 {
        fill: #000001;
      }

      .cls-8 {
        fill: #008a9b;
      }

      .cls-9 {
        fill: #010202;
      }

      .cls-10 {
        fill: #9e9e9e;
      }

      .cls-11 {
        fill: #00838f;
      }
    </style>
  </defs>
  <path d="m6.22,32h-1.75c-.06-.03-.12-.06-.18-.09-.54-.27-.62-.79-.7-1.3-.11-.76-.21-1.52-.31-2.28-.99-.1-1.67-.87-1.66-1.78.03-7.39.01-14.79.03-22.18,0-.41-.04-.69-.51-.82-.61-.16-.85-.72-1.1-1.24v-.87s.05,0,.05-.02C.32.48,1.02,0,1.99,0c8.74,0,17.47,0,26.21,0,.73,0,1.47.02,2.2.07.7.04,1.18.42,1.46,1.06.02.02.03.04.05.06.02.32.08.64.06.95-.06.75-.54,1.22-1.2,1.47-.28.11-.34.22-.34.49,0,7.4,0,14.81,0,22.21,0,.12,0,.25-.01.37-.04.85-.67,1.53-1.51,1.57-.07,0-.17.11-.18.18-.12.71-.23,1.42-.32,2.14-.08.62-.22,1.17-.88,1.43h-1.75c-.44-.2-.72-.53-.79-1.01-.09-.66-.21-1.33-.26-1.99-.05-.7-.04-.73-.75-.73H7.78c-.11,0-.23,0-.33,0-.02.03-.04.05-.04.06-.13.82-.29,1.63-.37,2.46-.05.59-.3.98-.83,1.22ZM29.59,1.12c-.39-.02-.78-.05-1.17-.05-8.56,0-17.12,0-25.69,0-.36,0-.72.03-1.08.06-.09,0-.2.07-.27.13-.25.21-.4.64-.27.9.12.25.42.53.8.53,1.29-.02,2.58,0,3.87,0,.42,0,.55.12.63.52,0,.32-.24.54-.6.54-.67,0-1.33,0-2,0-.36,0-.72,0-1.11,0v.44c0,7.38,0,14.77,0,22.15,0,.14-.05.29-.01.42.07.27.22.46.72.46,8.06,0,16.13,0,24.19,0,.13,0,.26.04.4.04.08,0,.15-.04.23-.06.57.26,1.1-.05,1.13-.65,0-.09,0-.19,0-.28,0-7.33,0-14.66,0-21.99,0-.16,0-.32,0-.5h-1.08c-.18,0-.35-.02-.53-.02-6.17,0-12.34,0-18.5,0-.5,0-.68-.17-.72-.67.04-.06.09-.13.13-.19.17-.22.41-.2.65-.2,6.78,0,13.57,0,20.35,0,.17,0,.33.03.5.01.43-.03.69-.27.79-.69.06-.23-.07-.67-.34-.8-.32-.15-.66-.2-1.01-.08ZM6.35,28.26c-.65,0-1.25,0-1.85,0-.06,0-.18.13-.17.18.05.35.13.69.19,1.03.03.17.05.35.07.52.04.31.08.63.12.94h.57c.65,0,.67,0,.78-.63.11-.66.19-1.33.3-2.05Zm19.39.02c0,.05-.02.1-.02.13.1.78.21,1.57.33,2.35.01.07.16.16.24.17.25.02.5,0,.75.01.17.01.25-.06.28-.21.05-.3.09-.59.15-.89.04-.2.11-.4.15-.61.05-.27.08-.55.12-.86-.15-.15-1-.2-1.99-.1Z"/>
  <path class="cls-3" d="m28.22,27.18c-.08.02-.15.06-.23.06-.13,0-.26-.04-.4-.04-8.06,0-16.13,0-24.19,0-.5,0-.65-.19-.72-.46-.03-.13.01-.28.01-.42,0-7.38,0-14.77,0-22.15v-.44c.39,0,.75,0,1.11,0,.67,0,1.33,0,2,0,.36,0,.6-.22.6-.54.57,0,1.14,0,1.72,0,.12,0,.23-.08.35-.13.02,0,.03,0,.05,0,.04.5.22.67.72.67,6.17,0,12.34,0,18.5,0,.18,0,.35.01.53.02,0,.42,0,.84,0,1.26-.22-.07-.44-.2-.66-.2-7.74-.01-15.48,0-23.21,0-.46,0-.64.17-.64.64,0,1.6,0,3.21,0,4.81,0,.07,0,.15,0,.22-.05.48.15.72.62.72,7.75,0,15.5,0,23.25,0,.29,0,.5-.09.65-.34,0,.47,0,.93,0,1.4,0,.08-.05.17-.07.25-.2-.24-.48-.25-.76-.25-7.64,0-15.27,0-22.91,0-.09,0-.19,0-.28,0-.25.04-.45.16-.51.42-.03.12.01.26.01.38,0,1.51,0,3.02,0,4.53,0,.21,0,.42.01.62.03.29.21.44.49.44,7.74,0,15.48,0,23.22,0,.28,0,.53-.02.72-.25.03,0,.05,0,.08,0,0,.55,0,1.09,0,1.64-.16-.3-.44-.34-.74-.34-7.69,0-15.38,0-23.06,0-.53,0-.72.23-.72.72.02,1.6,0,3.21,0,4.81,0,.15-.04.31,0,.44.11.36.24.42.72.42,7.66,0,15.31,0,22.97,0,.23,0,.45-.09.68-.14.05.07.14.15.14.22,0,.32-.04.65-.06.97Z"/>
  <path class="cls-10" d="m8.48,3.06c-.12.05-.23.13-.35.13-.57.01-1.14,0-1.72,0-.07-.4-.21-.52-.63-.52-1.29,0-2.58-.01-3.87,0-.38,0-.68-.28-.8-.53-.12-.25.02-.69.27-.9.08-.06.18-.12.27-.13.36-.03.72-.06,1.08-.06,8.56,0,17.12,0,25.69,0,.39,0,.78.03,1.17.05.09.12.2.24.25.37.17.42.01.81-.19,1.18-6.78,0-13.57,0-20.35,0-.24,0-.48-.02-.65.2-.06.06-.12.12-.18.19Z"/>
  <path class="cls-11" d="m28.22,27.18c.02-.32.05-.65.06-.97,0-.07-.09-.15-.14-.22,0-.02,0-.04.02-.05.02-.02.04-.05.06-.07.02-.12.07-.24.07-.36,0-1.81,0-3.62,0-5.43,0-.55,0-1.09,0-1.64,0-.04,0-.08,0-.13,0-1.89,0-3.78,0-5.67-.02-.02-.04-.05-.05-.07-.01-.02-.02-.04-.02-.06.03-.08.07-.17.07-.25,0-.47,0-.93,0-1.4,0-.06.01-.11.02-.17l.09-.07s-.06-.04-.09-.07c0-1.85-.01-3.7-.02-5.54,0-.42,0-.84,0-1.26.34,0,.68,0,1.08,0,0,.18,0,.34,0,.5,0,7.33,0,14.66,0,21.99,0,.09,0,.19,0,.28-.02.6-.55.9-1.13.65Z"/>
  <path class="cls-2" d="m6.35,28.26c-.1.72-.18,1.39-.3,2.05-.11.63-.12.63-.78.63h-.57c-.04-.31-.08-.63-.12-.94-.02-.17-.04-.35-.07-.52-.06-.34-.14-.69-.19-1.03,0-.05.11-.18.17-.18.6-.01,1.2,0,1.85,0Z"/>
  <path class="cls-2" d="m25.75,28.28c.99-.11,1.83-.05,1.99.1-.04.3-.07.58-.12.86-.04.2-.11.4-.15.61-.06.29-.1.59-.15.89-.03.15-.1.23-.28.21-.25-.02-.5.01-.75-.01-.09,0-.23-.1-.24-.17-.12-.78-.22-1.57-.33-2.35,0-.04.01-.08.02-.13Z"/>
  <path class="cls-4" d="m29.65,2.67c.2-.37.35-.76.19-1.18-.05-.14-.17-.25-.25-.37.35-.12.69-.07,1.01.08.27.12.4.57.34.8-.11.42-.37.66-.79.69-.16.01-.33,0-.5-.01Z"/>
  <path class="cls-9" d="m8.48,3.06c.06-.06.12-.12.18-.19-.04.06-.09.13-.13.19-.02,0-.03,0-.05,0Z"/>
  <path class="cls-5" d="m31.86,1.13s.03.04.05.06c-.02-.02-.03-.04-.05-.06Z"/>
  <path d="m28.28,12.63c0,1.89,0,3.78,0,5.67-.02.04-.04.08-.07.12-.19.23-.44.25-.72.25-7.74,0-15.48,0-23.22,0-.28,0-.46-.16-.49-.44-.02-.21-.01-.42-.01-.62,0-1.51,0-3.02,0-4.53,0-.13-.04-.26-.01-.38.06-.26.25-.39.51-.42.09-.01.19,0,.28,0,7.64,0,15.27,0,22.91,0,.28,0,.56,0,.76.25,0,.02,0,.04.02.06.02.02.04.05.05.07Zm-1.07.71H4.86v4.24h22.36v-4.24Z"/>
  <path d="m28.28,5.02c0,1.85.01,3.7.02,5.54,0,.04,0,.09,0,.13,0,.06-.01.11-.02.17-.15.25-.36.34-.65.34-7.75,0-15.5,0-23.25,0-.47,0-.67-.24-.62-.72,0-.07,0-.15,0-.22,0-1.6,0-3.21,0-4.81,0-.46.18-.64.64-.64,7.74,0,15.48,0,23.21,0,.22,0,.44.13.66.2Zm-1.06.88H4.84v.36c0,1.11,0,2.23,0,3.34,0,.18,0,.36,0,.54.18,0,.36,0,.54,0,7.08,0,14.17,0,21.25,0,.11,0,.23,0,.34.03.21.07.27-.03.27-.21,0-1.34,0-2.68,0-4.05Z"/>
  <path d="m28.16,25.94s-.02.03-.02.05c-.23.05-.45.14-.68.14-7.66,0-15.31,0-22.97,0-.48,0-.61-.06-.72-.42-.04-.13,0-.29,0-.44,0-1.6.01-3.21,0-4.81,0-.49.19-.72.72-.72,7.69.01,15.38,0,23.06,0,.31,0,.58.04.74.34,0,1.81,0,3.62,0,5.43,0,.12-.04.24-.07.36-.02.02-.04.05-.06.07Zm-23.34-.89h22.38v-4.21H4.82v4.21Z"/>
  <path class="cls-8" d="m28.21,18.43s.04-.08.07-.12c0,.04,0,.08,0,.13-.03,0-.05,0-.08,0Z"/>
  <path class="cls-1" d="m28.3,10.69s0-.09,0-.13c.03.02.06.04.09.07l-.09.07Z"/>
  <path class="cls-3" d="m28.28,12.63s-.04-.05-.05-.07c.02.02.04.04.05.07Z"/>
  <path class="cls-3" d="m28.16,25.94s.04-.05.06-.07c-.02.02-.04.05-.06.07Z"/>
  <path class="cls-11" d="m27.21,13.35v4.24H4.86v-4.24h22.36Zm-13.87,2.09c0-.19,0-.34,0-.49,0-.33-.17-.5-.49-.51-.35,0-.56.17-.57.51,0,.1,0,.21,0,.31,0,.84.42,1.29,1.25,1.29,1.76,0,3.52-.01,5.28-.02.42,0,.9-.43.91-.84.01-.28.04-.57,0-.84-.02-.14-.16-.35-.29-.38-.19-.05-.48-.15-.6.14-.11.26-.16.54-.25.84h-5.23Z"/>
  <path class="cls-11" d="m27.22,5.9c0,1.37,0,2.71,0,4.05,0,.18-.05.28-.27.21-.1-.04-.23-.03-.34-.03-7.08,0-14.17,0-21.25,0-.18,0-.36,0-.54,0,0-.18,0-.36,0-.54,0-1.11,0-2.23,0-3.34v-.36h22.39Zm-8.62,2.08h-5.26c0-.16,0-.29,0-.43,0-.38-.17-.55-.54-.55-.32,0-.52.22-.52.56,0,.17,0,.33,0,.5.02.46.49.99.92.99,1.85.01,3.71.01,5.56,0,.47,0,.94-.42.96-.83.01-.27.04-.55-.01-.81-.03-.15-.18-.36-.31-.4-.2-.05-.51-.13-.62.18-.09.24-.12.49-.18.77Z"/>
  <path class="cls-11" d="m4.82,25.04v-4.21h22.38v4.21H4.82Zm8.54-2.17c0-.16.03-.32-.02-.46-.06-.17-.14-.4-.28-.46-.15-.07-.4-.02-.57.06-.24.12-.29.83-.16,1.21.2.58.65.78,1.2.78,1.75,0,3.49-.01,5.24-.03.56,0,.95-.42.95-.96,0-.22,0-.44,0-.66,0-.31-.2-.48-.52-.48-.39,0-.53.13-.54.47,0,.18,0,.35-.01.53-.02.02-.03.03-.05.05-1.73,0-3.46,0-5.19,0-.02-.02-.03-.03-.05-.05Z"/>
  <path d="m13.34,15.44h5.23c.09-.3.14-.58.25-.84.12-.29.41-.18.6-.14.12.03.27.24.29.38.05.27.02.56,0,.84-.02.4-.49.83-.91.84-1.76,0-3.52.02-5.28.02-.83,0-1.25-.44-1.25-1.29,0-.1,0-.21,0-.31.01-.33.22-.51.57-.51.32,0,.49.18.49.51,0,.15,0,.31,0,.49Z"/>
  <path d="m18.6,7.98c.06-.28.09-.54.18-.77.11-.31.41-.23.62-.18.13.04.28.25.31.4.05.26.03.54.01.81-.02.41-.48.83-.96.83-1.85,0-3.71,0-5.56,0-.43,0-.9-.53-.92-.99,0-.17,0-.33,0-.5,0-.34.2-.56.52-.56.37,0,.54.17.54.55,0,.13,0,.27,0,.43h5.26Z"/>
  <path class="cls-7" d="m13.4,22.92c1.73,0,3.46,0,5.19,0,.02-.02.03-.03.05-.05,0-.18,0-.35.01-.53,0-.35.14-.47.54-.47.32,0,.52.17.52.48,0,.22,0,.44,0,.66,0,.54-.39.96-.95.96-1.75.02-3.49.03-5.24.03-.56,0-1.01-.19-1.2-.78-.13-.38-.07-1.09.16-1.21.16-.08.41-.13.57-.06.14.06.22.29.28.46.05.14.02.31.02.46.02.02.03.03.05.05Z"/>
  <path class="cls-6" d="m13.4,22.92s-.03-.03-.05-.05c.02.02.03.03.05.05Z"/>
  <path class="cls-6" d="m18.65,22.88s-.03.03-.05.05c.02-.02.03-.03.05-.05Z"/>
</svg>