<?xml version="1.0" encoding="UTF-8"?>
<svg id="Layer_1" data-name="Layer 1" xmlns="http://www.w3.org/2000/svg" viewBox="0 0 32 32">
  <defs>
    <style>
      .cls-1 {
        fill: none;
        stroke: #fcd462;
        stroke-linecap: round;
        stroke-linejoin: round;
        stroke-width: 1.67px;
      }

      .cls-2 {
        fill: #fcd462;
      }

      .cls-3 {
        fill: #f6c358;
      }

      .cls-4 {
        fill: #666;
      }
    </style>
  </defs>
  <g>
    <path class="cls-3" d="m22.23,16c0,3.44-2.79,6.23-6.23,6.23-1.95,0-3.68-.89-4.83-2.29,1.07.88,2.45,1.41,3.95,1.41,3.44,0,6.23-2.79,6.23-6.23,0-1.5-.53-2.87-1.41-3.95,1.4,1.14,2.29,2.88,2.29,4.83Z"/>
    <path class="cls-2" d="m21.36,15.12c0,3.44-2.79,6.23-6.23,6.23-1.5,0-2.87-.53-3.95-1.41-.88-1.07-1.41-2.45-1.41-3.95,0-3.44,2.79-6.23,6.23-6.23,1.5,0,2.87.53,3.95,1.41.88,1.07,1.41,2.45,1.41,3.95Z"/>
    <line class="cls-1" x1="16" y1="7.84" x2="16" y2="6"/>
    <line class="cls-1" x1="11.92" y1="8.93" x2="11" y2="7.34"/>
    <line class="cls-1" x1="8.93" y1="11.92" x2="7.34" y2="11"/>
    <line class="cls-1" x1="7.84" y1="16" x2="6" y2="16"/>
    <line class="cls-1" x1="8.93" y1="20.08" x2="7.34" y2="21"/>
    <line class="cls-1" x1="11.92" y1="23.07" x2="11" y2="24.66"/>
    <line class="cls-1" x1="16" y1="24.16" x2="16" y2="26"/>
    <line class="cls-1" x1="20.08" y1="23.07" x2="21" y2="24.66"/>
    <line class="cls-1" x1="23.07" y1="20.08" x2="24.66" y2="21"/>
    <line class="cls-1" x1="24.16" y1="16" x2="26" y2="16"/>
    <line class="cls-1" x1="23.07" y1="11.92" x2="24.66" y2="11"/>
    <line class="cls-1" x1="20.08" y1="8.93" x2="21" y2="7.34"/>
  </g>
  <g>
    <path class="cls-4" d="m30.74,30.99c-9.82,0-19.65,0-29.47,0-.22,0-.27-.05-.27-.27,0-9.82,0-19.65,0-29.47.17-.21.39-.26.65-.26,9.56,0,19.11,0,28.67,0,.53,0,.68.14.68.68,0,9.56,0,19.11,0,28.67,0,.26-.05.48-.26.65Zm-.72-14.95c0-4.54,0-9.07,0-13.61q0-.45-.45-.45c-9.05,0-18.1,0-27.15,0q-.44,0-.44.43c0,9.06,0,18.12,0,27.18q0,.43.44.44c9.05,0,18.1,0,27.15,0q.46,0,.46-.45c0-4.52,0-9.03,0-13.55Z"/>
    <path class="cls-4" d="m15.54,9.47c0,1.79,0,3.59,0,5.38,0,.58-.13.71-.7.71-3.61,0-7.22,0-10.82,0-.57,0-.7-.13-.7-.71,0-3.6,0-7.2,0-10.79,0-.59.13-.71.73-.71,3.59,0,7.18,0,10.77,0,.61,0,.73.12.73.74,0,1.79,0,3.59,0,5.38Zm-10.43,5.11c.3,0,.6-.02.9,0,.28.02.47-.08.67-.27,1.43-1.45,2.88-2.89,4.32-4.33.51-.51.35-.5.9,0,.21.19.2.32,0,.51-1.28,1.26-2.54,2.53-3.81,3.8-.07.07-.18.12-.18.27.09,0,.18,0,.27,0,2,0,4,0,6,0,.38,0,.39,0,.39-.4,0-2.93,0-5.85,0-8.78,0-.09.03-.19-.01-.25-3.14,3.14-6.28,6.28-9.43,9.43Zm5.9-10.24c-.1-.01-.14-.02-.17-.02-2.08,0-4.15,0-6.23,0-.26,0-.3.12-.3.34,0,2.97,0,5.95,0,8.92,0,.07-.04.16,0,.18,3.15-3.15,6.29-6.29,9.44-9.44-.28,0-.58.02-.87,0-.29-.02-.49.08-.69.28-1.59,1.61-3.19,3.2-4.8,4.8-.49.49-.35.49-.85,0-.28-.27-.28-.28.01-.57,1.41-1.41,2.83-2.83,4.24-4.24.07-.07.13-.14.24-.25Z"/>
    <path class="cls-4" d="m22.56,16.46c1.79,0,3.59,0,5.38,0,.58,0,.71.13.71.7,0,3.61,0,7.22,0,10.82,0,.57-.13.7-.71.7-3.6,0-7.2,0-10.79,0-.59,0-.71-.13-.71-.73,0-3.59,0-7.18,0-10.77,0-.61.12-.73.74-.73,1.79,0,3.59,0,5.38,0Zm5.12,1.83c-3.14,3.14-6.28,6.28-9.4,9.4.25,0,.55-.02.85,0,.28.02.47-.07.67-.27,1.43-1.45,2.88-2.89,4.32-4.33.51-.51.35-.5.9,0,.21.19.2.32,0,.51-1.28,1.26-2.54,2.53-3.81,3.8-.07.07-.18.12-.18.27.1,0,.2,0,.29,0,1.98,0,3.96,0,5.94,0q.42,0,.42-.43c0-2.92,0-5.83,0-8.75,0-.09.03-.19,0-.22Zm-.81-.85c-.32,0-.64.01-.96,0-.25-.01-.42.08-.59.25-1.59,1.6-3.2,3.2-4.8,4.8-.46.46-.46.45-.92,0-.21-.2-.19-.32,0-.51,1.43-1.41,2.85-2.84,4.26-4.26.07-.07.17-.13.21-.27-.1,0-.19-.01-.29-.01-1.99,0-3.98,0-5.97,0-.41,0-.41,0-.41.41,0,2.92,0,5.85,0,8.77,0,.09-.03.19.01.25,3.14-3.14,6.28-6.28,9.44-9.44Z"/>
    <path class="cls-4" d="m16.44,9.44c0-1.8,0-3.61,0-5.41,0-.54.14-.68.67-.68,3.63,0,7.25,0,10.88,0,.52,0,.67.14.67.66,0,3.64,0,7.27,0,10.91,0,.5-.15.65-.64.65-3.65,0-7.29,0-10.94,0-.49,0-.64-.15-.64-.66,0-1.82,0-3.65,0-5.47Zm.98.02c0,1.58,0,3.16,0,4.74,0,.38,0,.39.4.39,3.16,0,6.32,0,9.48,0,.37,0,.38,0,.38-.38,0-3.17,0-6.34,0-9.51,0-.37,0-.37-.38-.37-3.16,0-6.32,0-9.48,0-.39,0-.4,0-.4.39,0,1.58,0,3.16,0,4.74Z"/>
    <path class="cls-4" d="m3.32,22.55c0-1.8,0-3.61,0-5.41,0-.54.14-.68.67-.68,3.63,0,7.25,0,10.88,0,.52,0,.67.14.67.66,0,3.64,0,7.27,0,10.91,0,.5-.15.65-.64.65-3.65,0-7.29,0-10.94,0-.49,0-.64-.15-.64-.66,0-1.82,0-3.65,0-5.47Zm6.11,5.14c1.58,0,3.16,0,4.74,0,.38,0,.39,0,.39-.4,0-3.16,0-6.32,0-9.48,0-.37,0-.38-.38-.38-3.17,0-6.34,0-9.51,0-.36,0-.37,0-.37.38,0,3.16,0,6.32,0,9.48,0,.39,0,.4.39.4,1.58,0,3.16,0,4.74,0Z"/>
  </g>
</svg>