<?xml version="1.0" encoding="UTF-8"?>
<svg id="Layer_1" data-name="Layer 1" xmlns="http://www.w3.org/2000/svg" viewBox="0 0 32 32">
  <defs>
    <style>
      .cls-1 {
        fill: #fedd0a;
      }
    </style>
  </defs>
  <path d="m17.75,31.98H.31c-.1-.1-.21-.21-.31-.31,0-1.21,0-2.41,0-3.62.09-.11.18-.22.28-.32,2-2,3.99-4.01,6.02-5.99.43-.42.64-.83.58-1.43-.08-.8-.46-1.4-1.13-1.82-.47-.29-1-.37-1.54-.37-1.15,0-2.29,0-3.44,0-.29,0-.57,0-.77-.26v-3.68c.15-.16.3-.33.46-.49,2.85-2.85,5.7-5.69,8.55-8.53.05-.05.1-.11.16-.15.24-.19.61-.18.81.02.17.17.15.5-.04.73-.08.09-.18.16-.26.24-2.53,2.53-5.07,5.06-7.6,7.59-.08.08-.15.16-.24.27h1.4c.07,0,.15.01.22.01,4.56,0,9.12,0,13.68,0,.21,0,.32-.1.45-.22,4.11-4.1,8.21-8.2,12.32-12.3.07-.07.17-.11.25-.17-.02-.03-.05-.06-.07-.09-.1,0-.2,0-.3,0-4.11,0-8.22,0-12.34,0-.5,0-1,0-1.5,0-.37,0-.75,0-1.12-.01-.16,0-.27.04-.38.15-.42.43-.85.85-1.28,1.28-.13.13-.27.24-.48.16-.47-.17-.57-.59-.2-.97.46-.47.93-.92,1.39-1.39.2-.21.42-.29.71-.29,5.51,0,11.01,0,16.52,0,.36,0,.67.04.91.32v3.68s-.1,0-.11.02c-.37.53-.91.9-1.36,1.35-1.81,1.81-3.61,3.62-5.44,5.42-.26.25-.32.48-.22.81.31,1.01,1.24,1.72,2.2,1.73,1.35.01,2.7-.01,4.06,0,.32,0,.69-.03.87.35v3.56c-.58.59-1.16,1.17-1.74,1.77-.9.92-1.83,1.8-2.71,2.75-.82.89-1.67,1.75-2.5,2.63-.83.87-1.67,1.73-2.49,2.61-.69.75-1.42,1.46-2.13,2.2-.59.61-1.19,1.21-1.76,1.84-.3.32-.59.65-.93.94Zm-14.53-4.27c.38,0,.77,0,1.15.02.49.01.94-.1,1.36-.36.5-.31.87-.72,1.05-1.3.21-.68.16-1.38.15-2.08v-1.23c-1.66,1.65-3.33,3.33-4.95,4.95h1.25Zm-1.09,1.1c-.29,0-.58,0-.87-.01-.15,0-.2.04-.19.19.01.31,0,.62,0,.94.01.33-.15.79.06.95.22.16.66.04,1,.04.01,0,.02,0,.03,0,4.9,0,9.79,0,14.69,0,.19,0,.22-.07.22-.23,0-.54-.02-1.08,0-1.62,0-.23-.07-.27-.28-.27-1.06,0-2.12,0-3.19,0-.75,0-1.44-.19-2.03-.62-.86-.63-1.4-1.5-1.43-2.58-.04-1.59,0-3.18-.02-4.77,0-.57.07-1.12.27-1.66.23-.61.65-1.08,1.15-1.45.65-.49,1.42-.67,2.25-.65,1,.02,2,0,3,0,.21,0,.29-.04.28-.27-.02-.51-.03-1.02,0-1.53.02-.29-.09-.33-.35-.33-4.63,0-9.27,0-13.9,0-.23,0-.46,0-.69,0-.29,0-.58,0-.87-.02-.17-.01-.2.06-.2.21,0,.57,0,1.14,0,1.71,0,.15.02.22.2.21.29-.02.58-.01.87-.01.92.06,1.84-.04,2.77.07,1.01.12,1.8.6,2.42,1.39.53.67.67,1.46.68,2.27.01,1.48.01,2.97,0,4.46,0,.97-.32,1.82-1.04,2.52-.7.69-1.52,1.02-2.49,1.03-.78,0-1.56,0-2.34.01ZM23.92,12.08c-.6.49-1.11,1.07-1.64,1.61-1.38,1.41-2.78,2.78-4.17,4.18-.19.19-.39.28-.66.27-1.2,0-2.4-.01-3.59,0-.53,0-1.03.1-1.51.39-.77.46-1.13,1.15-1.15,1.98-.04,1.56,0,3.12,0,4.68,0,.36.03.71.18,1.04.39.86,1.18,1.47,2.11,1.49,1.21.03,2.41,0,3.62-.01.15,0,.28-.01.39-.14.69-.74,1.39-1.49,2.1-2.21.49-.5.98-1,1.44-1.51.49-.54,1.03-1.03,1.49-1.6.37-.45.82-.83,1.21-1.27.45-.52.98-.97,1.43-1.49.33-.39.73-.72,1.06-1.11.44-.52.96-.95,1.4-1.47.32-.37.69-.7,1.04-1.05.47-.47.94-.93,1.42-1.41-.12-.07-.22-.03-.32-.04-1.05-.04-2.1.08-3.14-.06-.81-.11-1.48-.49-2.02-1.1-.3-.34-.54-.72-.7-1.17ZM30.93,1.92c-.14,0-.18.08-.23.14-4.13,4.12-8.26,8.24-12.39,12.36-.13.13-.18.26-.17.44.01.46,0,.92,0,1.38.12-.04.19-.15.27-.23,4.14-4.13,8.28-8.27,12.43-12.4.07-.07.1-.12.1-.21,0-.49,0-.97,0-1.47Zm-12.8,28.13c.61-.49,1.08-1.08,1.6-1.63.72-.77,1.47-1.53,2.19-2.3.5-.54,1.03-1.06,1.53-1.59.35-.37.73-.71,1.04-1.11.37-.47.83-.86,1.24-1.3.57-.6,1.14-1.21,1.73-1.8.95-.96,1.89-1.94,2.88-2.86.46-.43.7-.86.6-1.48-.04-.25,0-.52,0-.78-.34.36-.69.62-1.01.93-.56.55-1.11,1.12-1.66,1.69-.83.87-1.65,1.75-2.48,2.61-.87.89-1.72,1.79-2.57,2.7-.71.75-1.43,1.49-2.14,2.25-.66.71-1.36,1.4-2.03,2.1-.27.28-.53.57-.8.86-.06.06-.11.13-.11.22,0,.49,0,.99,0,1.5Z"/>
  <path class="cls-1" d="m3.23,13.86c.03-.12.14-.18.21-.26C7.51,9.54,11.58,5.47,15.64,1.41c.1-.1.24-.16.29-.31.5,0,1,0,1.5,0,4.11,0,8.22,0,12.34,0,.1,0,.2,0,.3,0,.02.03.05.06.07.09-.08.06-.18.1-.25.17-4.11,4.1-8.22,8.2-12.32,12.3-.13.13-.24.22-.45.22-4.56,0-9.12,0-13.68,0-.07,0-.15,0-.22-.01Z"/>
  <path class="cls-1" d="m23.92,12.08c.16.45.39.83.7,1.17.54.61,1.21,1,2.02,1.1,1.05.14,2.1.02,3.14.06.1,0,.2-.03.32.04-.48.47-.95.94-1.42,1.41-.35.35-.72.68-1.04,1.05-.44.52-.97.96-1.4,1.47-.33.39-.73.72-1.06,1.11-.45.52-.97.98-1.43,1.49-.39.44-.84.82-1.21,1.27-.46.57-1.01,1.05-1.49,1.6-.46.52-.95,1.02-1.44,1.51-.71.73-1.41,1.47-2.1,2.21-.12.12-.24.14-.39.14-1.21,0-2.41.04-3.62.01-.93-.02-1.72-.62-2.11-1.49-.15-.33-.18-.68-.18-1.04,0-1.56-.04-3.12,0-4.68.02-.84.38-1.53,1.15-1.98.48-.28.98-.38,1.51-.39,1.2-.02,2.4,0,3.59,0,.27,0,.47-.08.66-.27,1.39-1.39,2.79-2.77,4.17-4.18.53-.55,1.04-1.12,1.64-1.61Zm-6.48,8.54c-.37.06-.64.44-.88.85-.15.25,0,.42.16.59.16.18.36.18.53.08.31-.18.58-.43.76-.75.24-.42.04-.77-.57-.77Zm-2.54,3.81c.15,0,.26-.07.35-.16.19-.19.38-.38.57-.57.19-.19.19-.52.01-.7-.2-.22-.51-.26-.72-.08-.23.2-.44.42-.64.64-.14.15-.16.34-.06.54.1.2.25.32.47.34Zm5.9-7.22c-.06.25.16.39.34.51.15.1.32-.03.47-.11.25-.13.37-.38.56-.57.26-.25.27-.58.05-.79-.21-.2-.58-.18-.8.05-.19.19-.35.4-.54.59-.09.09-.07.19-.08.32Zm-1.65,2.72c.13.03.25-.01.34-.1.23-.23.49-.44.68-.72.16-.24.05-.44-.08-.61-.11-.16-.55-.19-.68-.07-.21.2-.43.4-.61.62-.13.16-.24.36-.1.58.1.16.21.34.46.3Zm3.78-4.96c0,.28.24.53.51.52.3,0,.55-.25.55-.55,0-.25-.29-.52-.56-.51-.3,0-.5.22-.5.54Zm-9.13,10.58c0-.33-.2-.51-.54-.51-.29,0-.46.21-.46.52,0,.27.23.53.46.54.32.01.54-.21.54-.55Z"/>
  <path class="cls-1" d="m2.13,14.95c.23,0,.46,0,.69,0,4.63,0,9.27,0,13.9,0,.26,0,.36.04.35.33-.03.51-.02,1.02,0,1.53,0,.23-.07.27-.28.27-1-.01-2,.01-3,0-.82-.02-1.6.17-2.25.65-.5.37-.92.84-1.15,1.45-.21.54-.28,1.09-.27,1.66.01,1.59-.02,3.18.02,4.77.03,1.08.57,1.95,1.43,2.58.59.43,1.29.63,2.03.62,1.06,0,2.12,0,3.19,0,.21,0,.29.04.28.27-.02.54-.01,1.08,0,1.62,0,.17-.03.23-.22.23-4.9,0-9.79,0-14.69,0-.01,0-.02,0-.03,0,0-.7,0-1.4,0-2.1.78,0,1.56,0,2.34-.01.97,0,1.79-.34,2.49-1.03.72-.7,1.03-1.55,1.04-2.52.01-1.49.01-2.97,0-4.46,0-.82-.15-1.6-.68-2.27-.62-.8-1.41-1.27-2.42-1.39-.92-.11-1.84-.01-2.77-.07,0-.7,0-1.4,0-2.1Z"/>
  <path class="cls-1" d="m30.93,1.92c0,.5,0,.99,0,1.47,0,.09-.03.14-.1.21-4.15,4.13-8.29,8.27-12.43,12.4-.09.09-.15.19-.27.23,0-.46,0-.92,0-1.38,0-.18.04-.31.17-.44,4.13-4.12,8.26-8.24,12.39-12.36.05-.05.09-.14.23-.14Z"/>
  <path class="cls-1" d="m18.14,30.05c0-.51,0-1.01,0-1.5,0-.09.05-.15.11-.22.27-.29.53-.58.8-.86.68-.7,1.37-1.39,2.03-2.1.7-.76,1.43-1.5,2.14-2.25.85-.91,1.71-1.81,2.57-2.7.84-.86,1.65-1.74,2.48-2.61.54-.57,1.09-1.13,1.66-1.69.31-.31.67-.57,1.01-.93,0,.26-.03.52,0,.78.09.62-.15,1.06-.6,1.48-.99.92-1.92,1.9-2.88,2.86-.58.59-1.15,1.2-1.73,1.8-.41.43-.87.83-1.24,1.3-.32.41-.69.75-1.04,1.11-.51.53-1.03,1.05-1.53,1.59-.72.77-1.46,1.53-2.19,2.3-.51.54-.98,1.13-1.6,1.63Z"/>
  <path class="cls-1" d="m3.22,27.71c.43-.44.85-.88,1.28-1.31.81-.8,1.62-1.6,2.43-2.41,0,.7.06,1.39-.15,2.08-.18.58-.54.99-1.05,1.3-.42.26-.87.37-1.36.36-.38-.01-.77-.01-1.15-.02Z"/>
  <path d="m11.24,3.21c.32,0,.51.18.51.47,0,.31-.25.59-.53.59-.26,0-.53-.28-.53-.56,0-.3.23-.5.55-.5Z"/>
  <path d="m17.44,20.62c.61,0,.81.35.57.77-.18.31-.45.56-.76.75-.17.1-.37.1-.53-.08-.15-.17-.31-.34-.16-.59.24-.41.5-.79.88-.85Z"/>
  <path d="m14.9,24.43c-.22-.02-.37-.14-.47-.34-.1-.2-.08-.39.06-.54.2-.23.41-.44.64-.64.21-.18.52-.13.72.08.18.19.17.51-.01.7-.19.19-.38.38-.57.57-.1.1-.21.17-.35.16Z"/>
  <path d="m20.81,17.21c.01-.13,0-.23.08-.32.19-.19.35-.4.54-.59.23-.23.6-.24.8-.05.22.21.2.53-.05.79-.19.19-.31.44-.56.57-.15.08-.32.22-.47.11-.18-.12-.39-.26-.34-.51Z"/>
  <path d="m19.16,19.93c-.25.04-.36-.14-.46-.3-.13-.21-.03-.42.1-.58.19-.22.4-.42.61-.62.13-.12.57-.09.68.07.12.18.24.37.08.61-.19.28-.44.49-.68.72-.08.08-.21.12-.34.1Z"/>
  <path d="m22.94,14.98c0-.32.2-.54.5-.54.27,0,.56.26.56.51,0,.3-.25.55-.55.55-.27,0-.51-.24-.51-.52Z"/>
  <path d="m13.81,25.56c0,.34-.22.56-.54.55-.23,0-.46-.27-.46-.54,0-.32.17-.51.46-.52.34,0,.54.18.54.51Z"/>
</svg>