<?xml version="1.0" encoding="UTF-8"?>
<svg id="Layer_1" data-name="Layer 1" xmlns="http://www.w3.org/2000/svg" viewBox="0 0 32 32">
  <defs>
    <style>
      .cls-1 {
        fill: #d6d6e2;
      }

      .cls-2 {
        fill: #b3b6c3;
      }

      .cls-3 {
        fill: #040404;
      }

      .cls-4 {
        fill: #020202;
      }

      .cls-5 {
        fill: #030303;
      }

      .cls-6 {
        fill: #6f6f6f;
      }

      .cls-7 {
        fill: #fdfdfd;
      }

      .cls-8 {
        fill: #d8d8e3;
      }

      .cls-9 {
        fill: #0071bc;
      }

      .cls-10 {
        fill: #878787;
      }

      .cls-11 {
        fill: #d8d8e4;
      }

      .cls-12 {
        fill: #010101;
      }

      .cls-13 {
        fill: #898998;
      }

      .cls-14 {
        fill: #fefefe;
      }

      .cls-15 {
        fill: #fcfcfc;
      }
    </style>
  </defs>
  <path class="cls-9" d="m10.32,31.75c-.04-.19-.11-.39-.11-.58,0-1.59,0-3.18,0-4.78,0-3.78,0-7.55,0-11.33.01-.08.02-.15.04-.23-.02,0-.04-.01-.06-.02-.04.04-.08.08-.12.12-.51.27-1.03.5-1.61.6-.3.05-.53.03-.77-.1-.04,0-.08,0-.12,0-.27-.03-.56-.01-.81-.1-1.05-.38-1.84-1.07-2.34-2.08-.06-.11-.07-.25-.11-.37l-.05-.11c-.04-.19-.09-.38-.13-.57-.02-.04-.04-.08-.06-.12-.26-1.74.36-3.15,1.58-4.31-.34-.58-.67-1.15-1-1.72-.21-.37-.41-.75-.63-1.11-.05-.08-.18-.15-.28-.17-.18-.03-.37,0-.56,0-.55,0-.8-.24-.8-.8,0-1.06,0-2.12,0-3.19,0-.4.13-.58.52-.71.04-.01.07-.04.1-.06.12,0,.25,0,.37,0,8.43,0,16.85,0,25.28,0,.18,0,.37.03.54.07.26.06.42.33.43.73,0,1.05.02,2.1,0,3.15-.01.47-.22.88-.84.78-.65-.1-.98.16-1.26.74-.34.73-.8,1.4-1.21,2.1-.02.02-.04.03-.07.05-.02,0-.03.01-.05.02.02.02.03.03.05.05h0c.48.46.91.96,1.2,1.56.02.02.03.04.05.07.11.29.21.58.32.86.04.07.09.13.13.2,0,.22.03.44-.02.65-.07.29.02.57,0,.85-.02.31-.11.61-.18.91-.03.11-.08.22-.13.33-.02.02-.03.05-.05.07,0,.02-.01.04-.01.06-.02.02-.03.05-.05.07-.48.98-1.28,1.61-2.27,2-1.16.45-2.25.26-3.29-.38-.05-.04-.09-.08-.2-.18.02.16.03.24.04.33,0,1.71-.01,3.42,0,5.12,0,.51-.11.9-.65,1.05-.51-.18-.61-.32-.61-.85,0-1.32,0-2.64,0-3.97q0-.68-.69-.68h-1.5c0,.17,0,.3,0,.42,0,5.07,0,10.14,0,15.21-.02.3-.24.46-.45.61h-.37c-.21-.16-.42-.33-.44-.62,0-.09.02-.19.02-.28,0-5,0-10,0-15,0-.1-.01-.2-.02-.33h-5.6v.37c0,4.97,0,9.95,0,14.92,0,.4-.1.73-.47.94h-.5c-.06-.08-.12-.17-.18-.25ZM6.01,13.38s.04.04.05.07c.13.12.25.25.39.35.5.37,1.1.54,1.68.5.85-.06,1.52-.51,1.88-1.33.43-.99.04-1.99-.89-2.31-.76-.26-1.55.08-1.64.92-.02.2-.1.43-.24.57-.28.29-.55.24-.93-.08-.02-.24-.08-.48-.06-.72.05-.57.32-1.05.74-1.41.53-.46,1.17-.65,1.88-.61.07.02.15.03.22.06.41.15.89.22,1.23.47.46.34.8.84.98,1.41.07.22.17.25.37.25,2.89,0,5.78,0,8.67,0h.25c.15-.64.48-1.16.96-1.57.02-.02.05-.03.07-.05.42-.35.92-.47,1.43-.58.04-.04.09-.07.13-.11.21.06.42.11.63.18.21.07.42.13.62.22.68.3,1.05.85,1.23,1.54.08.32.16.63-.08.94-.16.21-.38.3-.57.21-.19-.09-.35-.29-.47-.48-.1-.15-.1-.36-.17-.54-.33-.91-1.69-.87-2.19-.15-.02.02-.04.03-.06.05-.13.29-.33.57-.36.86-.08.84.37,1.47,1.02,1.93.34.24.76.39,1.21.28.04-.04.09-.07.13-.11.41.21.74-.02,1.08-.19.24-.13.45-.3.67-.46.02-.02.03-.03.05-.05.11-.16.24-.31.33-.48.16-.31.35-.62.43-.95.07-.29.01-.61,0-.91,0-.13-.07-.26-.09-.33-.01-.66-.31-1.13-.65-1.59-.02-.02-.04-.04-.06-.06-.55-.65-1.21-1.11-2.07-1.26-.02-.03-.04-.06-.06-.09-.02.03-.04.06-.06.09-.89-.04-1.79-.11-2.68-.11-3.51-.01-7.01,0-10.52,0-.88,0-1.77-.05-2.63.18-.07.02-.15-.03-.23-.04-.16-.05-.21.03-.2.17-.05.02-.09.04-.14.07-.8.42-1.4,1.03-1.76,1.87-.3.68-.35,1.36-.18,2.08.11.48.28.9.65,1.24,0,.02.01.04.02.06Zm7.49-.61h-2.01v1.73h9.02v-1.73h-7.01Zm-3.62-6.27c.12,0,.25,0,.37,0,4.55,0,9.1,0,13.65,0,.48,0,.96,0,1.44,0,.07,0,.19,0,.22-.06.32-.55.63-1.11.96-1.68-.06,0-.07,0-.08,0-5.74,0-11.47,0-17.21,0-.07,0-.15.04-.22.06-.13-.02-.26-.06-.39-.06-.99,0-1.98,0-2.97,0-.08,0-.17.01-.28.02.31.54.59,1.04.89,1.53.05.08.16.18.25.18,1.12,0,2.25,0,3.37,0Zm-2.56-3c.06,0,.12,0,.19,0,6.88,0,13.77,0,20.65,0,.07,0,.14,0,.2-.01V1.26c-.1,0-.18,0-.27,0-6.84,0-13.69,0-20.53,0-.08,0-.17,0-.25,0h-3.67v2.23c1.23,0,2.45,0,3.67,0Z"/>
  <path class="cls-9" d="m13.75,32c-.03-.46-.1-.93-.1-1.39,0-3.44,0-6.89-.01-10.33,0-.39.16-.71.72-.73.29.09.5.25.51.58,0,.15.02.29.02.44,0,3.61,0,7.22,0,10.83-.02.3-.24.46-.45.61h-.69Z"/>
  <path class="cls-9" d="m21.55,31.81c-.08.06-.16.12-.25.19h-.37c-.21-.16-.41-.33-.44-.62,0-.11.02-.23.02-.34,0-1.66.01-3.31,0-4.97,0-.49.12-.82.62-.95.08.04.16.09.24.13.04.02.08.03.13.05.09.22.26.43.27.65.02,1.74.01,3.49,0,5.23,0,.17-.06.34-.09.5-.17-.08-.1.07-.13.13Z"/>
  <path class="cls-14" d="m20.5,31.38c.03.29.22.46.44.62h-3.06c.22-.16.43-.31.45-.61.72,0,1.45,0,2.17-.01Z"/>
  <path class="cls-14" d="m14.43,32c.22-.16.43-.31.45-.61.72,0,1.45,0,2.17,0,.02.3.23.46.44.62h-3.06Z"/>
  <path class="cls-3" d="m10.32,31.75c.06.08.12.17.18.25h-.12c-.02-.08-.03-.17-.05-.25Z"/>
  <path class="cls-13" d="m20.5,31.38c-.72,0-1.45,0-2.17.01,0-5.07,0-10.14,0-15.21,0-.12,0-.25,0-.42h1.5q.69,0,.69.68c0,1.32,0,2.64,0,3.97,0,.54.1.67.61.85,0,.45,0,.91,0,1.36-.03.02-.05.04-.08.05-.34.09-.56.34-.55.6.01.3.28.56.63.61,0,.41,0,.82,0,1.23-.5.13-.62.46-.62.95.02,1.66,0,3.31,0,4.97,0,.11-.01.23-.02.34Z"/>
  <path class="cls-9" d="m21.13,23.89c-.35-.06-.62-.32-.63-.61-.01-.26.21-.51.55-.6.03,0,.05-.03.08-.05.19.12.44.21.54.38.22.37-.05.78-.54.88Z"/>
  <path class="cls-10" d="m21.77,15.08c0-.08-.02-.17-.04-.33.11.1.15.14.2.18-.05.05-.11.1-.16.15Z"/>
  <path class="cls-12" d="m27.94,10.38c-.04-.07-.09-.13-.13-.2.04.07.09.13.13.2Z"/>
  <path class="cls-15" d="m21.55,31.81c.02-.06-.04-.21.13-.13-.04.04-.08.09-.13.13Z"/>
  <path class="cls-15" d="m21.5,25.3s-.08-.03-.13-.05c.04.02.08.03.13.05Z"/>
  <path class="cls-14" d="m27.57,13.19s.03-.05.05-.07c-.02.02-.03.05-.05.07Z"/>
  <path class="cls-14" d="m27.51,13.32s.03-.05.05-.07c-.02.02-.03.05-.05.07Z"/>
  <path class="cls-15" d="m26.24,7.63s.04-.03.07-.05c-.02.04-.04.07-.07.11h0s0-.04,0-.07Z"/>
  <path class="cls-7" d="m27.49,9.32s-.03-.04-.05-.07c.02.02.03.04.05.07Z"/>
  <path class="cls-6" d="m10.06,14.94s.08-.08.12-.12c.02,0,.04.01.06.02-.01.08-.02.15-.04.23-.05-.04-.1-.08-.15-.13Z"/>
  <path class="cls-15" d="m4.06,12.07s.04.08.06.12c-.02-.04-.04-.08-.06-.12Z"/>
  <path class="cls-7" d="m4.25,12.77l.05.11-.05-.11Z"/>
  <path class="cls-7" d="m7.55,15.44s.08,0,.12,0c-.04,0-.08,0-.12,0Z"/>
  <path class="cls-11" d="m7.31,1.27c.08,0,.17,0,.25,0,6.84,0,13.69,0,20.53,0,.08,0,.16,0,.27,0v2.23c-.06,0-.13.01-.2.01-6.88,0-13.77,0-20.65,0-.06,0-.12,0-.19,0,0-.74,0-1.49,0-2.23Z"/>
  <path class="cls-11" d="m25.87,13.49c-.22.15-.44.33-.67.46-.33.17-.67.41-1.08.19-.04.04-.09.07-.13.11-.45.12-.87-.04-1.21-.28-.65-.46-1.1-1.09-1.02-1.93.03-.3.24-.58.36-.86.02-.02.04-.03.06-.05.5-.72,1.86-.76,2.19.15.06.18.07.38.17.54.12.19.28.39.47.48.19.09.41,0,.57-.21.24-.31.16-.62.08-.94-.18-.69-.55-1.24-1.23-1.54-.2-.09-.41-.15-.62-.22-.21-.07-.42-.12-.63-.18-.04.04-.09.07-.13.11-.51.11-1.02.23-1.43.58-.02.02-.05.03-.07.05-.48.41-.81.93-.96,1.57h-.25c-2.89,0-5.78,0-8.67,0-.2,0-.3-.03-.37-.25-.18-.56-.52-1.06-.98-1.41-.34-.25-.81-.32-1.23-.47-.07-.03-.15-.04-.22-.06.41-.11.83-.3,1.24-.3,4.39-.02,8.78-.02,13.16-.01.85,0,1.7-.05,2.53.19.04,0,.09,0,.13,0,.34.46.64.93.65,1.59.02.07.08.2.09.33.02.3.08.62,0,.91-.08.33-.27.64-.43.95-.09.17-.22.32-.33.48-.02.02-.03.03-.05.05Z"/>
  <path class="cls-13" d="m17.06,31.38c-.72,0-1.45,0-2.17,0,0-3.61,0-7.22,0-10.83,0-.15-.01-.29-.02-.44-.01-.33-.23-.49-.51-.58,0-.53,0-1.07,0-1.6.29-.13.53-.3.51-.68-.02-.34-.26-.46-.51-.58,0-.3,0-.61,0-.91.89,0,1.78,0,2.7,0,0,.12.02.22.02.33,0,5,0,10,0,15,0,.09-.01.19-.02.28Z"/>
  <path class="cls-2" d="m9,4.82c.07-.02.15-.06.22-.06,5.74,0,11.47,0,17.21,0,.01,0,.02,0,.08,0-.32.57-.63,1.13-.96,1.68-.03.05-.14.06-.22.06-.48,0-.96,0-1.44,0-4.55,0-9.1,0-13.65,0-.12,0-.25,0-.37,0-.02-.07-.02-.15-.06-.2-.41-.42-.66-.92-.81-1.48Z"/>
  <path class="cls-2" d="m13.49,12.77h7.01v1.73h-7c0-.58,0-1.15,0-1.73Z"/>
  <path class="cls-8" d="m5.99,13.32c.05-.26.08-.52.14-.78.04-.17.12-.32.19-.48.38.32.66.36.93.08.13-.14.22-.37.24-.57.09-.83.87-1.18,1.64-.92.93.31,1.32,1.32.89,2.31-.36.83-1.02,1.27-1.88,1.33-.59.04-1.18-.13-1.68-.5-.14-.1-.26-.23-.39-.35-.02-.02-.04-.04-.05-.07,0-.02-.01-.04-.02-.06Z"/>
  <path class="cls-14" d="m9,4.82c.15.56.4,1.07.81,1.48.04.04.04.13.06.2-1.12,0-2.25.01-3.37,0-.08,0-.2-.1-.25-.18-.3-.49-.58-1-.89-1.53.11,0,.2-.02.28-.02.99,0,1.98,0,2.97,0,.13,0,.26.04.39.06Z"/>
  <path class="cls-7" d="m7.62,7.9l-.2.17c0-.14.04-.22.2-.17Z"/>
  <path class="cls-12" d="m23.99,14.25s.09-.07.13-.11c-.04.04-.09.07-.13.11Z"/>
  <path class="cls-5" d="m23.05,9.32s.09-.07.13-.11c-.04.04-.09.07-.13.11Z"/>
  <path class="cls-9" d="m23.81,7.87s-.08,0-.13,0c.02-.03.04-.06.06-.09.02.03.04.06.06.09Z"/>
  <path class="cls-14" d="m25.81,9.2s.05-.04.07-.07c.02.02.04.04.06.06-.04,0-.09,0-.13,0Z"/>
  <path class="cls-1" d="m25.87,13.49s.03-.03.05-.05c-.02.02-.03.03-.05.05Z"/>
  <path class="cls-15" d="m26.24,7.7l-.05-.05s.03-.01.05-.02c0,.02,0,.05,0,.07Z"/>
  <path class="cls-3" d="m22.18,11.13s-.04.03-.06.05c.02-.02.04-.03.06-.05Z"/>
  <path class="cls-4" d="m21.55,9.94s.05-.03.07-.05c-.02.02-.05.03-.07.05Z"/>
  <path class="cls-9" d="m14.37,16.68c.25.12.49.25.51.58.02.38-.21.55-.51.68-.43-.01-.75-.28-.75-.63,0-.34.3-.6.75-.63Z"/>
</svg>