<?xml version="1.0" encoding="UTF-8"?>
<svg id="Layer_1" data-name="Layer 1" xmlns="http://www.w3.org/2000/svg" viewBox="0 0 32 32">
  <defs>
    <style>
      .cls-1 {
        fill: #666;
      }
    </style>
  </defs>
  <path class="cls-1" d="m7.84,29.96c-2.37,0-4.74,0-7.11,0-.47,0-.73-.27-.73-.74,0-3.41,0-6.81,0-10.22,0-.18.09-.4.21-.52C5.61,13.09,11,7.69,16.4,2.31c.16-.16.44-.27.66-.27,4.67-.02,9.33-.02,14,0,.69,0,.92.24.93.93.02,3.27.01,6.54,0,9.81,0,.3-.1.57-.33.8-5.37,5.36-10.73,10.72-16.09,16.09-.21.21-.41.3-.71.3-2.34-.01-4.68,0-7.02,0Zm4.87-5.65s.03.04.05.07c.21.7.53,1.37.62,2.11.06.49.14.98.2,1.47.01.1-.02.2,0,.29.12.33.39.14.61.19v-8.61h-4.57c1.37,1.29,2.35,2.8,3.07,4.48Zm-5.98.64s-.05-.09-.07-.13c-.42-.43-.84-.86-1.26-1.28-.02-.02-.05-.04-.07-.05-.63-.48-1.3-.89-2.05-1.14-.56-.18-1.14-.3-1.74-.46v2.59c1.9.39,3.48,1.58,3.96,3.94h2.52c-.01-.15-.02-.29-.04-.42-.14-.8-.38-1.56-.79-2.28-.06-.11-.05-.27-.11-.38-.09-.15-.22-.26-.34-.39Zm4.52-.2c-.24-.47-.45-.97-.72-1.42-.8-1.34-1.83-2.48-3.11-3.38-.13-.09-.32-.15-.48-.15-1.57-.01-3.13,0-4.7,0h-.7v.6c2.11.27,3.96,1.04,5.47,2.56,1.5,1.51,2.32,3.34,2.55,5.45h2.39c.04-.23.15-.46.11-.67-.18-.88-.41-1.75-.62-2.62-.02-.02-.03-.04-.05-.07-.03-.08-.05-.17-.08-.25-.02-.02-.03-.04-.05-.07ZM23.27,3.56c-1.94,0-3.81,0-5.69,0-.21,0-.35.06-.49.21-4.77,4.78-9.54,9.55-14.32,14.32-.06.06-.13.09-.23.16.11.04.13.05.14.05,2.57,0,5.14,0,7.71,0,.11,0,.25-.08.34-.17,1.19-1.18,2.38-2.37,3.57-3.56.26-.26.69-.35,1-.22.3.13.42.35.36.81-.02.17-.14.34-.26.47-.87.89-1.75,1.76-2.68,2.68.6,0,1.13.01,1.66,0,.14,0,.31-.07.4-.16,4.79-4.78,9.58-9.57,14.37-14.35.05-.05.1-.11.19-.2-1.26,0-2.46,0-3.67,0-.15,0-.32.08-.43.18-1.23,1.21-2.44,2.43-3.66,3.65-.32.31-.75.33-1.05.03-.32-.31-.33-.81,0-1.14.89-.9,1.79-1.79,2.73-2.73Zm-7.52,23.7s.05.04.07.05c.03-.04.04-.1.08-.13,4.81-4.81,9.62-9.62,14.42-14.43.09-.09.15-.25.15-.38.01-.87,0-1.73,0-2.6v-1.08c-.13.12-.21.19-.28.26-.83.83-1.66,1.66-2.49,2.49-.35.34-.78.35-1.1.03-.31-.32-.29-.82.05-1.14.15-.14.29-.29.43-.43,1.07-1.07,2.14-2.14,3.21-3.21.07-.07.17-.16.17-.24.02-.58,0-1.15,0-1.79-.11.09-.18.13-.23.19-4.79,4.78-9.57,9.57-14.36,14.36-.08.08-.14.21-.14.32,0,2.58,0,5.16,0,7.74Zm-14.2-1.22v2.4c.77,0,1.51,0,2.26,0,.04,0,.08,0,.12-.01-.23-1.13-1.22-2.14-2.38-2.39Z"/>
  <path class="cls-1" d="m6.73,24.95s-.05-.09-.07-.13c.02.04.05.09.07.13Z"/>
  <path class="cls-1" d="m5.39,23.54s-.05-.04-.07-.05c.02.02.05.04.07.05Z"/>
  <path class="cls-1" d="m12.71,24.31s.03.04.05.07c-.02-.02-.03-.04-.05-.07Z"/>
  <path class="cls-1" d="m11.3,24.82s-.03-.04-.05-.07c.02.02.03.04.05.07Z"/>
  <path class="cls-1" d="m11.43,25.14s-.03-.04-.05-.07c.02.02.03.04.05.07Z"/>
  <path class="cls-1" d="m9.07,14.43c.1-.18.17-.39.31-.53,1.65-1.67,3.31-3.32,4.97-4.98.26-.26.57-.32.9-.21.28.1.46.31.44.61-.02.21-.07.48-.21.62-1.67,1.7-3.37,3.38-5.05,5.08-.25.25-.53.27-.83.19-.29-.08-.45-.38-.52-.78Z"/>
  <path class="cls-1" d="m23.07,16.26c.34.01.6.13.69.43.09.3.11.6-.15.87-1.36,1.36-2.72,2.72-4.08,4.08-.3.3-.73.29-1.03,0-.29-.28-.33-.8-.06-1.07,1.36-1.37,2.73-2.74,4.11-4.1.12-.12.34-.14.52-.21Z"/>
</svg>